solid OpenSCAD_Model
  facet normal -0 0 1
    outer loop
      vertex 32.385 180 81.5
      vertex 50.6 0 81.5
      vertex 50.6 180 81.5
    endloop
  endfacet
  facet normal 0 0 1
    outer loop
      vertex 50.6 0 81.5
      vertex 32.385 180 81.5
      vertex 32.385 0 81.5
    endloop
  endfacet
  facet normal -0 0 1
    outer loop
      vertex 0 180 40.3
      vertex 12.954 0 40.3
      vertex 12.954 180 40.3
    endloop
  endfacet
  facet normal 0 0 1
    outer loop
      vertex 12.954 0 40.3
      vertex 0 180 40.3
      vertex 0 0 40.3
    endloop
  endfacet
  facet normal -1 0 0
    outer loop
      vertex 0 67.5 0
      vertex 0 0 0
      vertex 0 67.5 17
    endloop
  endfacet
  facet normal -1 0 0
    outer loop
      vertex 0 112.5 17
      vertex 0 180 0
      vertex 0 112.5 0
    endloop
  endfacet
  facet normal -1 0 0
    outer loop
      vertex 0 180 0
      vertex 0 112.5 17
      vertex 0 180 40.3
    endloop
  endfacet
  facet normal -1 0 0
    outer loop
      vertex 0 67.5 17
      vertex 0 180 40.3
      vertex 0 112.5 17
    endloop
  endfacet
  facet normal -1 0 0
    outer loop
      vertex 0 67.5 17
      vertex 0 0 40.3
      vertex 0 180 40.3
    endloop
  endfacet
  facet normal -1 0 0
    outer loop
      vertex 0 0 40.3
      vertex 0 67.5 17
      vertex 0 0 0
    endloop
  endfacet
  facet normal 0 1 0
    outer loop
      vertex 50.6 180 70
      vertex 50.6 180 63
      vertex 38.1 180 70
    endloop
  endfacet
  facet normal 0 1 0
    outer loop
      vertex 38.1 180 77.5
      vertex 50.6 180 81.5
      vertex 50.6 180 77.5
    endloop
  endfacet
  facet normal 0 1 0
    outer loop
      vertex 50.6 180 81.5
      vertex 38.1 180 77.5
      vertex 32.385 180 81.5
    endloop
  endfacet
  facet normal 0 1 -0
    outer loop
      vertex 38.1 180 70
      vertex 32.385 180 81.5
      vertex 38.1 180 77.5
    endloop
  endfacet
  facet normal 0 1 0
    outer loop
      vertex 38.1 180 70
      vertex 12.954 180 40.3
      vertex 32.385 180 81.5
    endloop
  endfacet
  facet normal 0 1 0
    outer loop
      vertex 24.5 180 30
      vertex 38.1 180 70
      vertex 50.6 180 63
    endloop
  endfacet
  facet normal 0 1 0
    outer loop
      vertex 4 180 30
      vertex 12.954 180 40.3
      vertex 24.5 180 30
    endloop
  endfacet
  facet normal 0 1 0
    outer loop
      vertex 38.1 180 70
      vertex 24.5 180 30
      vertex 12.954 180 40.3
    endloop
  endfacet
  facet normal 0 1 -0
    outer loop
      vertex 27.11 180 0
      vertex 24.5 180 30
      vertex 50.6 180 63
    endloop
  endfacet
  facet normal 0 1 0
    outer loop
      vertex 24.5 180 30
      vertex 27.11 180 0
      vertex 24.5 180 0
    endloop
  endfacet
  facet normal 0 1 0
    outer loop
      vertex 12.954 180 40.3
      vertex 4 180 30
      vertex 0 180 40.3
    endloop
  endfacet
  facet normal 0 1 0
    outer loop
      vertex 0 180 0
      vertex 4 180 30
      vertex 4 180 0
    endloop
  endfacet
  facet normal 0 1 0
    outer loop
      vertex 4 180 30
      vertex 0 180 0
      vertex 0 180 40.3
    endloop
  endfacet
  facet normal 0 -1 0
    outer loop
      vertex 0 0 40.3
      vertex 4 0 30
      vertex 12.954 0 40.3
    endloop
  endfacet
  facet normal 0 -1 0
    outer loop
      vertex 0 0 0
      vertex 4 0 30
      vertex 0 0 40.3
    endloop
  endfacet
  facet normal 0 -1 -0
    outer loop
      vertex 4 0 30
      vertex 0 0 0
      vertex 4 0 0
    endloop
  endfacet
  facet normal 0 -1 0
    outer loop
      vertex 32.385 0 81.5
      vertex 38.1 0 77.5
      vertex 50.6 0 81.5
    endloop
  endfacet
  facet normal 0 -1 0
    outer loop
      vertex 32.385 0 81.5
      vertex 38.1 0 70
      vertex 38.1 0 77.5
    endloop
  endfacet
  facet normal 0 -1 0
    outer loop
      vertex 38.1 0 70
      vertex 50.6 0 63
      vertex 50.6 0 70
    endloop
  endfacet
  facet normal 0 -1 0
    outer loop
      vertex 12.954 0 40.3
      vertex 38.1 0 70
      vertex 32.385 0 81.5
    endloop
  endfacet
  facet normal 0 -1 0
    outer loop
      vertex 24.5 0 30
      vertex 38.1 0 70
      vertex 12.954 0 40.3
    endloop
  endfacet
  facet normal 0 -1 0
    outer loop
      vertex 24.5 0 30
      vertex 12.954 0 40.3
      vertex 4 0 30
    endloop
  endfacet
  facet normal 0 -1 -0
    outer loop
      vertex 38.1 0 70
      vertex 24.5 0 30
      vertex 50.6 0 63
    endloop
  endfacet
  facet normal 0 -1 0
    outer loop
      vertex 27.11 0 0
      vertex 24.5 0 30
      vertex 24.5 0 0
    endloop
  endfacet
  facet normal 0 -1 0
    outer loop
      vertex 24.5 0 30
      vertex 27.11 0 0
      vertex 50.6 0 63
    endloop
  endfacet
  facet normal 0 -1 -0
    outer loop
      vertex 50.6 0 81.5
      vertex 38.1 0 77.5
      vertex 50.6 0 77.5
    endloop
  endfacet
  facet normal -0.904457 0 0.426565
    outer loop
      vertex 12.954 0 40.3
      vertex 32.385 180 81.5
      vertex 12.954 180 40.3
    endloop
  endfacet
  facet normal -0.904457 0 0.426565
    outer loop
      vertex 32.385 180 81.5
      vertex 12.954 0 40.3
      vertex 32.385 0 81.5
    endloop
  endfacet
  facet normal 1 -0 0
    outer loop
      vertex 50.6 0 81.5
      vertex 50.6 180 77.5
      vertex 50.6 180 81.5
    endloop
  endfacet
  facet normal 1 0 0
    outer loop
      vertex 50.6 180 77.5
      vertex 50.6 0 81.5
      vertex 50.6 0 77.5
    endloop
  endfacet
  facet normal 1 -0 0
    outer loop
      vertex 50.6 0 70
      vertex 50.6 180 63
      vertex 50.6 180 70
    endloop
  endfacet
  facet normal 1 0 0
    outer loop
      vertex 50.6 180 63
      vertex 50.6 0 70
      vertex 50.6 0 63
    endloop
  endfacet
  facet normal 0 0 -1
    outer loop
      vertex 0 0 0
      vertex 4 67.5 0
      vertex 4 0 0
    endloop
  endfacet
  facet normal -0 0 -1
    outer loop
      vertex 4 67.5 0
      vertex 0 0 0
      vertex 0 67.5 0
    endloop
  endfacet
  facet normal 0 0 -1
    outer loop
      vertex 0 112.5 0
      vertex 4 180 0
      vertex 4 112.5 0
    endloop
  endfacet
  facet normal -0 0 -1
    outer loop
      vertex 4 180 0
      vertex 0 112.5 0
      vertex 0 180 0
    endloop
  endfacet
  facet normal 0 0 -1
    outer loop
      vertex 24.5 0 0
      vertex 27.11 180 0
      vertex 27.11 0 0
    endloop
  endfacet
  facet normal -0 0 -1
    outer loop
      vertex 27.11 180 0
      vertex 24.5 0 0
      vertex 24.5 180 0
    endloop
  endfacet
  facet normal 0 0 -1
    outer loop
      vertex 38.1 0 77.5
      vertex 50.6 180 77.5
      vertex 50.6 0 77.5
    endloop
  endfacet
  facet normal -0 0 -1
    outer loop
      vertex 50.6 180 77.5
      vertex 38.1 0 77.5
      vertex 38.1 180 77.5
    endloop
  endfacet
  facet normal -0 0 1
    outer loop
      vertex 38.1 180 70
      vertex 50.6 0 70
      vertex 50.6 180 70
    endloop
  endfacet
  facet normal 0 0 1
    outer loop
      vertex 50.6 0 70
      vertex 38.1 180 70
      vertex 38.1 0 70
    endloop
  endfacet
  facet normal 1 -0 0
    outer loop
      vertex 38.1 0 77.5
      vertex 38.1 180 70
      vertex 38.1 180 77.5
    endloop
  endfacet
  facet normal 1 0 0
    outer loop
      vertex 38.1 180 70
      vertex 38.1 0 77.5
      vertex 38.1 0 70
    endloop
  endfacet
  facet normal -1 0 0
    outer loop
      vertex 24.5 0 0
      vertex 24.5 180 30
      vertex 24.5 180 0
    endloop
  endfacet
  facet normal -1 -0 0
    outer loop
      vertex 24.5 180 30
      vertex 24.5 0 0
      vertex 24.5 0 30
    endloop
  endfacet
  facet normal 0 0 -1
    outer loop
      vertex 4 0 30
      vertex 24.5 180 30
      vertex 24.5 0 30
    endloop
  endfacet
  facet normal -0 0 -1
    outer loop
      vertex 24.5 180 30
      vertex 4 0 30
      vertex 4 180 30
    endloop
  endfacet
  facet normal 1 0 0
    outer loop
      vertex 4 180 30
      vertex 4 112.5 17
      vertex 4 180 0
    endloop
  endfacet
  facet normal 1 0 0
    outer loop
      vertex 4 180 30
      vertex 4 67.5 17
      vertex 4 112.5 17
    endloop
  endfacet
  facet normal 1 -0 0
    outer loop
      vertex 4 0 30
      vertex 4 67.5 17
      vertex 4 180 30
    endloop
  endfacet
  facet normal 1 0 0
    outer loop
      vertex 4 0 0
      vertex 4 67.5 17
      vertex 4 0 30
    endloop
  endfacet
  facet normal 1 0 0
    outer loop
      vertex 4 67.5 17
      vertex 4 0 0
      vertex 4 67.5 0
    endloop
  endfacet
  facet normal 1 0 0
    outer loop
      vertex 4 180 0
      vertex 4 112.5 17
      vertex 4 112.5 0
    endloop
  endfacet
  facet normal 0.936988 0 -0.349363
    outer loop
      vertex 50.6 0 63
      vertex 27.11 180 0
      vertex 50.6 180 63
    endloop
  endfacet
  facet normal 0.936988 0 -0.349363
    outer loop
      vertex 27.11 180 0
      vertex 50.6 0 63
      vertex 27.11 0 0
    endloop
  endfacet
  facet normal 0 0 -1
    outer loop
      vertex 0 67.5 17
      vertex 4 112.5 17
      vertex 4 67.5 17
    endloop
  endfacet
  facet normal -0 0 -1
    outer loop
      vertex 4 112.5 17
      vertex 0 67.5 17
      vertex 0 112.5 17
    endloop
  endfacet
  facet normal 0 -1 0
    outer loop
      vertex 0 112.5 0
      vertex 4 112.5 17
      vertex 0 112.5 17
    endloop
  endfacet
  facet normal 0 -1 -0
    outer loop
      vertex 4 112.5 17
      vertex 0 112.5 0
      vertex 4 112.5 0
    endloop
  endfacet
  facet normal 0 1 -0
    outer loop
      vertex 4 67.5 0
      vertex 0 67.5 17
      vertex 4 67.5 17
    endloop
  endfacet
  facet normal 0 1 0
    outer loop
      vertex 0 67.5 17
      vertex 4 67.5 0
      vertex 0 67.5 0
    endloop
  endfacet
endsolid OpenSCAD_Model
