solid OpenSCAD_Model
  facet normal -0 0 1
    outer loop
      vertex 31.535 180 81.5
      vertex 45.6 0 81.5
      vertex 45.6 180 81.5
    endloop
  endfacet
  facet normal 0 0 1
    outer loop
      vertex 45.6 0 81.5
      vertex 31.535 180 81.5
      vertex 31.535 0 81.5
    endloop
  endfacet
  facet normal -0 0 1
    outer loop
      vertex 0 180 40.3
      vertex 12.614 0 40.3
      vertex 12.614 180 40.3
    endloop
  endfacet
  facet normal 0 0 1
    outer loop
      vertex 12.614 0 40.3
      vertex 0 180 40.3
      vertex 0 0 40.3
    endloop
  endfacet
  facet normal -1 0 0
    outer loop
      vertex 0 67.5 0
      vertex 0 0 0
      vertex 0 67.5 17
    endloop
  endfacet
  facet normal -1 0 0
    outer loop
      vertex 0 112.5 17
      vertex 0 180 0
      vertex 0 112.5 0
    endloop
  endfacet
  facet normal -1 0 0
    outer loop
      vertex 0 180 0
      vertex 0 112.5 17
      vertex 0 180 40.3
    endloop
  endfacet
  facet normal -1 0 0
    outer loop
      vertex 0 67.5 17
      vertex 0 180 40.3
      vertex 0 112.5 17
    endloop
  endfacet
  facet normal -1 0 0
    outer loop
      vertex 0 67.5 17
      vertex 0 0 40.3
      vertex 0 180 40.3
    endloop
  endfacet
  facet normal -1 0 0
    outer loop
      vertex 0 0 40.3
      vertex 0 67.5 17
      vertex 0 0 0
    endloop
  endfacet
  facet normal 0 1 0
    outer loop
      vertex 45.6 180 70
      vertex 45.6 180 63
      vertex 37.1 180 70
    endloop
  endfacet
  facet normal 0 1 0
    outer loop
      vertex 37.1 180 77.5
      vertex 45.6 180 81.5
      vertex 45.6 180 77.5
    endloop
  endfacet
  facet normal 0 1 0
    outer loop
      vertex 45.6 180 81.5
      vertex 37.1 180 77.5
      vertex 31.535 180 81.5
    endloop
  endfacet
  facet normal 0 1 -0
    outer loop
      vertex 37.1 180 70
      vertex 31.535 180 81.5
      vertex 37.1 180 77.5
    endloop
  endfacet
  facet normal 0 1 0
    outer loop
      vertex 37.1 180 70
      vertex 12.614 180 40.3
      vertex 31.535 180 81.5
    endloop
  endfacet
  facet normal 0 1 0
    outer loop
      vertex 45.6 180 63
      vertex 12.614 180 40.3
      vertex 37.1 180 70
    endloop
  endfacet
  facet normal 0 1 0
    outer loop
      vertex 4 180 30
      vertex 12.614 180 40.3
      vertex 24.5 180 30
    endloop
  endfacet
  facet normal 0 1 0
    outer loop
      vertex 45.6 180 63
      vertex 24.5 180 30
      vertex 12.614 180 40.3
    endloop
  endfacet
  facet normal 0 1 -0
    outer loop
      vertex 26.61 180 0
      vertex 24.5 180 30
      vertex 45.6 180 63
    endloop
  endfacet
  facet normal 0 1 0
    outer loop
      vertex 24.5 180 30
      vertex 26.61 180 0
      vertex 24.5 180 0
    endloop
  endfacet
  facet normal 0 1 0
    outer loop
      vertex 12.614 180 40.3
      vertex 4 180 30
      vertex 0 180 40.3
    endloop
  endfacet
  facet normal 0 1 0
    outer loop
      vertex 0 180 0
      vertex 4 180 30
      vertex 4 180 0
    endloop
  endfacet
  facet normal 0 1 0
    outer loop
      vertex 4 180 30
      vertex 0 180 0
      vertex 0 180 40.3
    endloop
  endfacet
  facet normal 0 -1 0
    outer loop
      vertex 0 0 40.3
      vertex 4 0 30
      vertex 12.614 0 40.3
    endloop
  endfacet
  facet normal 0 -1 0
    outer loop
      vertex 0 0 0
      vertex 4 0 30
      vertex 0 0 40.3
    endloop
  endfacet
  facet normal 0 -1 -0
    outer loop
      vertex 4 0 30
      vertex 0 0 0
      vertex 4 0 0
    endloop
  endfacet
  facet normal 0 -1 0
    outer loop
      vertex 31.535 0 81.5
      vertex 37.1 0 77.5
      vertex 45.6 0 81.5
    endloop
  endfacet
  facet normal 0 -1 0
    outer loop
      vertex 31.535 0 81.5
      vertex 37.1 0 70
      vertex 37.1 0 77.5
    endloop
  endfacet
  facet normal 0 -1 0
    outer loop
      vertex 37.1 0 70
      vertex 45.6 0 63
      vertex 45.6 0 70
    endloop
  endfacet
  facet normal 0 -1 0
    outer loop
      vertex 12.614 0 40.3
      vertex 37.1 0 70
      vertex 31.535 0 81.5
    endloop
  endfacet
  facet normal 0 -1 0
    outer loop
      vertex 12.614 0 40.3
      vertex 45.6 0 63
      vertex 37.1 0 70
    endloop
  endfacet
  facet normal 0 -1 0
    outer loop
      vertex 24.5 0 30
      vertex 12.614 0 40.3
      vertex 4 0 30
    endloop
  endfacet
  facet normal 0 -1 0
    outer loop
      vertex 12.614 0 40.3
      vertex 24.5 0 30
      vertex 45.6 0 63
    endloop
  endfacet
  facet normal 0 -1 0
    outer loop
      vertex 26.61 0 0
      vertex 24.5 0 30
      vertex 24.5 0 0
    endloop
  endfacet
  facet normal 0 -1 0
    outer loop
      vertex 24.5 0 30
      vertex 26.61 0 0
      vertex 45.6 0 63
    endloop
  endfacet
  facet normal 0 -1 -0
    outer loop
      vertex 45.6 0 81.5
      vertex 37.1 0 77.5
      vertex 45.6 0 77.5
    endloop
  endfacet
  facet normal -0.90875 0 0.417341
    outer loop
      vertex 12.614 0 40.3
      vertex 31.535 180 81.5
      vertex 12.614 180 40.3
    endloop
  endfacet
  facet normal -0.90875 0 0.417341
    outer loop
      vertex 31.535 180 81.5
      vertex 12.614 0 40.3
      vertex 31.535 0 81.5
    endloop
  endfacet
  facet normal 1 -0 0
    outer loop
      vertex 45.6 0 81.5
      vertex 45.6 180 77.5
      vertex 45.6 180 81.5
    endloop
  endfacet
  facet normal 1 0 0
    outer loop
      vertex 45.6 180 77.5
      vertex 45.6 0 81.5
      vertex 45.6 0 77.5
    endloop
  endfacet
  facet normal 1 -0 0
    outer loop
      vertex 45.6 0 70
      vertex 45.6 180 63
      vertex 45.6 180 70
    endloop
  endfacet
  facet normal 1 0 0
    outer loop
      vertex 45.6 180 63
      vertex 45.6 0 70
      vertex 45.6 0 63
    endloop
  endfacet
  facet normal 0 0 -1
    outer loop
      vertex 0 0 0
      vertex 4 67.5 0
      vertex 4 0 0
    endloop
  endfacet
  facet normal -0 0 -1
    outer loop
      vertex 4 67.5 0
      vertex 0 0 0
      vertex 0 67.5 0
    endloop
  endfacet
  facet normal 0 0 -1
    outer loop
      vertex 0 112.5 0
      vertex 4 180 0
      vertex 4 112.5 0
    endloop
  endfacet
  facet normal -0 0 -1
    outer loop
      vertex 4 180 0
      vertex 0 112.5 0
      vertex 0 180 0
    endloop
  endfacet
  facet normal 0 0 -1
    outer loop
      vertex 24.5 0 0
      vertex 26.61 180 0
      vertex 26.61 0 0
    endloop
  endfacet
  facet normal -0 0 -1
    outer loop
      vertex 26.61 180 0
      vertex 24.5 0 0
      vertex 24.5 180 0
    endloop
  endfacet
  facet normal 0 0 -1
    outer loop
      vertex 37.1 0 77.5
      vertex 45.6 180 77.5
      vertex 45.6 0 77.5
    endloop
  endfacet
  facet normal -0 0 -1
    outer loop
      vertex 45.6 180 77.5
      vertex 37.1 0 77.5
      vertex 37.1 180 77.5
    endloop
  endfacet
  facet normal -0 0 1
    outer loop
      vertex 37.1 180 70
      vertex 45.6 0 70
      vertex 45.6 180 70
    endloop
  endfacet
  facet normal 0 0 1
    outer loop
      vertex 45.6 0 70
      vertex 37.1 180 70
      vertex 37.1 0 70
    endloop
  endfacet
  facet normal 1 -0 0
    outer loop
      vertex 37.1 0 77.5
      vertex 37.1 180 70
      vertex 37.1 180 77.5
    endloop
  endfacet
  facet normal 1 0 0
    outer loop
      vertex 37.1 180 70
      vertex 37.1 0 77.5
      vertex 37.1 0 70
    endloop
  endfacet
  facet normal -1 0 0
    outer loop
      vertex 24.5 0 0
      vertex 24.5 180 30
      vertex 24.5 180 0
    endloop
  endfacet
  facet normal -1 -0 0
    outer loop
      vertex 24.5 180 30
      vertex 24.5 0 0
      vertex 24.5 0 30
    endloop
  endfacet
  facet normal 0 0 -1
    outer loop
      vertex 4 0 30
      vertex 24.5 180 30
      vertex 24.5 0 30
    endloop
  endfacet
  facet normal -0 0 -1
    outer loop
      vertex 24.5 180 30
      vertex 4 0 30
      vertex 4 180 30
    endloop
  endfacet
  facet normal 1 0 0
    outer loop
      vertex 4 180 30
      vertex 4 112.5 17
      vertex 4 180 0
    endloop
  endfacet
  facet normal 1 0 0
    outer loop
      vertex 4 180 30
      vertex 4 67.5 17
      vertex 4 112.5 17
    endloop
  endfacet
  facet normal 1 -0 0
    outer loop
      vertex 4 0 30
      vertex 4 67.5 17
      vertex 4 180 30
    endloop
  endfacet
  facet normal 1 0 0
    outer loop
      vertex 4 0 0
      vertex 4 67.5 17
      vertex 4 0 30
    endloop
  endfacet
  facet normal 1 0 0
    outer loop
      vertex 4 67.5 17
      vertex 4 0 0
      vertex 4 67.5 0
    endloop
  endfacet
  facet normal 1 0 0
    outer loop
      vertex 4 180 0
      vertex 4 112.5 17
      vertex 4 112.5 0
    endloop
  endfacet
  facet normal 0.957449 0 -0.288602
    outer loop
      vertex 45.6 0 63
      vertex 26.61 180 0
      vertex 45.6 180 63
    endloop
  endfacet
  facet normal 0.957449 0 -0.288602
    outer loop
      vertex 26.61 180 0
      vertex 45.6 0 63
      vertex 26.61 0 0
    endloop
  endfacet
  facet normal 0 0 -1
    outer loop
      vertex 0 67.5 17
      vertex 4 112.5 17
      vertex 4 67.5 17
    endloop
  endfacet
  facet normal -0 0 -1
    outer loop
      vertex 4 112.5 17
      vertex 0 67.5 17
      vertex 0 112.5 17
    endloop
  endfacet
  facet normal 0 -1 0
    outer loop
      vertex 0 112.5 0
      vertex 4 112.5 17
      vertex 0 112.5 17
    endloop
  endfacet
  facet normal 0 -1 -0
    outer loop
      vertex 4 112.5 17
      vertex 0 112.5 0
      vertex 4 112.5 0
    endloop
  endfacet
  facet normal 0 1 -0
    outer loop
      vertex 4 67.5 0
      vertex 0 67.5 17
      vertex 4 67.5 17
    endloop
  endfacet
  facet normal 0 1 0
    outer loop
      vertex 0 67.5 17
      vertex 4 67.5 0
      vertex 0 67.5 0
    endloop
  endfacet
endsolid OpenSCAD_Model
