solid OpenSCAD_Model
  facet normal 0.248529 0.968625 -0
    outer loop
      vertex 25.309 25.9511 0
      vertex 25.1874 25.9823 0.0999994
      vertex 25.309 25.9511 0.0999994
    endloop
  endfacet
  facet normal 0.248529 0.968625 0
    outer loop
      vertex 25.1874 25.9823 0.0999994
      vertex 25.309 25.9511 0
      vertex 25.1874 25.9823 0
    endloop
  endfacet
  facet normal -0.484162 -0.515577 0.706942
    outer loop
      vertex -0.728969 -0.684546 35.4553
      vertex -1.23742 -1.37051 34.6068
      vertex -0.637424 -0.770513 35.4553
    endloop
  endfacet
  facet normal -0.484125 -0.515608 0.706945
    outer loop
      vertex -1.23742 -1.37051 34.6068
      vertex -0.728969 -0.684546 35.4553
      vertex -1.32897 -1.28455 34.6068
    endloop
  endfacet
  facet normal 0.0980987 0.778541 0.619879
    outer loop
      vertex 25.0628 25.998 0.0999994
      vertex 0.187381 0.982286 35.4553
      vertex 25.1874 25.9823 0.0999994
    endloop
  endfacet
  facet normal 0.0983422 0.778434 0.619975
    outer loop
      vertex 0.187381 0.982286 35.4553
      vertex 25.0628 25.998 0.0999994
      vertex 0.0627899 0.998026 35.4553
    endloop
  endfacet
  facet normal 0.271216 -0.685003 0.676175
    outer loop
      vertex 0.909016 -1.55106 34.6068
      vertex 0.425778 -0.904826 35.4553
      vertex 0.309016 -0.951056 35.4553
    endloop
  endfacet
  facet normal 0.271212 -0.685005 0.676174
    outer loop
      vertex 0.425778 -0.904826 35.4553
      vertex 0.909016 -1.55106 34.6068
      vertex 1.02578 -1.50483 34.6068
    endloop
  endfacet
  facet normal 0.368507 0.929625 -0
    outer loop
      vertex 25.4258 25.9048 0
      vertex 25.309 25.9511 0.0999994
      vertex 25.4258 25.9048 0.0999994
    endloop
  endfacet
  facet normal 0.368507 0.929625 0
    outer loop
      vertex 25.309 25.9511 0.0999994
      vertex 25.4258 25.9048 0
      vertex 25.309 25.9511 0
    endloop
  endfacet
  facet normal -0.998018 0.0629237 0
    outer loop
      vertex -26 25 0
      vertex -25.9921 25.1253 0.0999994
      vertex -25.9921 25.1253 0
    endloop
  endfacet
  facet normal -0.998018 0.0629237 0
    outer loop
      vertex -25.9921 25.1253 0.0999994
      vertex -26 25 0
      vertex -26 25 0.0999994
    endloop
  endfacet
  facet normal -0.271212 -0.685005 0.676174
    outer loop
      vertex -0.909016 -1.55106 34.6068
      vertex -0.425778 -0.904826 35.4553
      vertex -1.02578 -1.50483 34.6068
    endloop
  endfacet
  facet normal -0.271216 -0.685003 0.676175
    outer loop
      vertex -0.425778 -0.904826 35.4553
      vertex -0.909016 -1.55106 34.6068
      vertex -0.309016 -0.951056 35.4553
    endloop
  endfacet
  facet normal -0.418191 0.575595 0.702713
    outer loop
      vertex -25.5358 25.8443 0.0999994
      vertex -0.637424 0.770513 35.4553
      vertex -0.535827 0.844327 35.4553
    endloop
  endfacet
  facet normal -0.418135 0.575643 0.702708
    outer loop
      vertex -0.637424 0.770513 35.4553
      vertex -25.5358 25.8443 0.0999994
      vertex -25.6374 25.7705 0.0999994
    endloop
  endfacet
  facet normal 0.418224 -0.575554 0.702727
    outer loop
      vertex 0.637424 -0.770513 35.4553
      vertex 1.13583 -1.44433 34.6068
      vertex 1.23742 -1.37051 34.6068
    endloop
  endfacet
  facet normal 0.418184 -0.575584 0.702727
    outer loop
      vertex 1.13583 -1.44433 34.6068
      vertex 0.637424 -0.770513 35.4553
      vertex 0.535827 -0.844327 35.4553
    endloop
  endfacet
  facet normal -0.188481 0.734097 0.652362
    outer loop
      vertex -25.1874 25.9823 0.0999994
      vertex -0.309016 0.951056 35.4553
      vertex -0.187381 0.982286 35.4553
    endloop
  endfacet
  facet normal -0.188369 0.734157 0.652326
    outer loop
      vertex -0.309016 0.951056 35.4553
      vertex -25.1874 25.9823 0.0999994
      vertex -25.309 25.9511 0.0999994
    endloop
  endfacet
  facet normal -0.481919 0.876216 0
    outer loop
      vertex -25.4258 25.9048 0
      vertex -25.5358 25.8443 0.0999994
      vertex -25.4258 25.9048 0.0999994
    endloop
  endfacet
  facet normal -0.481919 0.876216 0
    outer loop
      vertex -25.5358 25.8443 0.0999994
      vertex -25.4258 25.9048 0
      vertex -25.5358 25.8443 0
    endloop
  endfacet
  facet normal -0.816488 0 0.577363
    outer loop
      vertex -1 0 35.4553
      vertex -2.2 0 33.7583
      vertex -1.6 -0.599999 34.6068
    endloop
  endfacet
  facet normal 0 1 -0
    outer loop
      vertex 25.0628 25.998 0
      vertex -25.0628 25.998 0.0999994
      vertex 25.0628 25.998 0.0999994
    endloop
  endfacet
  facet normal 0 1 0
    outer loop
      vertex -25.0628 25.998 0.0999994
      vertex 25.0628 25.998 0
      vertex -25.0628 25.998 0
    endloop
  endfacet
  facet normal 0.68447 0.729041 -0
    outer loop
      vertex 25.729 25.6845 0
      vertex 25.6374 25.7705 0.0999994
      vertex 25.729 25.6845 0.0999994
    endloop
  endfacet
  facet normal 0.68447 0.729041 0
    outer loop
      vertex 25.6374 25.7705 0.0999994
      vertex 25.729 25.6845 0
      vertex 25.6374 25.7705 0
    endloop
  endfacet
  facet normal 0.982346 0.187076 0
    outer loop
      vertex 25.9921 25.1253 0.0999994
      vertex 25.9686 25.2487 0
      vertex 25.9686 25.2487 0.0999994
    endloop
  endfacet
  facet normal 0.982346 0.187076 0
    outer loop
      vertex 25.9686 25.2487 0
      vertex 25.9921 25.1253 0.0999994
      vertex 25.9921 25.1253 0
    endloop
  endfacet
  facet normal 0 -0.816486 0.577366
    outer loop
      vertex -0.662789 -1.59803 34.6068
      vertex 0.0627899 -0.998026 35.4553
      vertex -0.0627899 -0.998026 35.4553
    endloop
  endfacet
  facet normal 0 -0.816486 0.577366
    outer loop
      vertex 0.0627899 -0.998026 35.4553
      vertex -0.662789 -1.59803 34.6068
      vertex 0.662789 -1.59803 34.6068
    endloop
  endfacet
  facet normal 0.710071 -0.230719 0.665258
    outer loop
      vertex 0.929776 -0.368124 35.4553
      vertex 1.56858 -0.848689 34.6068
      vertex 0.968583 -0.24869 35.4553
    endloop
  endfacet
  facet normal 0.710089 -0.230683 0.665251
    outer loop
      vertex 1.56858 -0.848689 34.6068
      vertex 0.929776 -0.368124 35.4553
      vertex 1.52978 -0.968123 34.6068
    endloop
  endfacet
  facet normal -0.798368 -0.0502336 0.600071
    outer loop
      vertex -1.6 -0.599999 34.6068
      vertex -0.992114 -0.125333 35.4553
      vertex -1 0 35.4553
    endloop
  endfacet
  facet normal -0.79836 -0.0502586 0.60008
    outer loop
      vertex -0.992114 -0.125333 35.4553
      vertex -1.6 -0.599999 34.6068
      vertex -1.59211 -0.725332 34.6068
    endloop
  endfacet
  facet normal -0.770502 0.637437 0
    outer loop
      vertex -25.809 25.5878 0
      vertex -25.729 25.6845 0.0999994
      vertex -25.729 25.6845 0
    endloop
  endfacet
  facet normal -0.770502 0.637437 0
    outer loop
      vertex -25.729 25.6845 0.0999994
      vertex -25.809 25.5878 0
      vertex -25.809 25.5878 0.0999994
    endloop
  endfacet
  facet normal -0.125015 0.992155 0
    outer loop
      vertex -25.0628 25.998 0
      vertex -25.1874 25.9823 0.0999994
      vertex -25.0628 25.998 0.0999994
    endloop
  endfacet
  facet normal -0.125015 0.992155 0
    outer loop
      vertex -25.1874 25.9823 0.0999994
      vertex -25.0628 25.998 0
      vertex -25.1874 25.9823 0
    endloop
  endfacet
  facet normal 0.188478 -0.734086 0.652376
    outer loop
      vertex 0.78738 -1.58229 34.6068
      vertex 0.309016 -0.951056 35.4553
      vertex 0.187381 -0.982286 35.4553
    endloop
  endfacet
  facet normal 0.188476 -0.734086 0.652376
    outer loop
      vertex 0.309016 -0.951056 35.4553
      vertex 0.78738 -1.58229 34.6068
      vertex 0.909016 -1.55106 34.6068
    endloop
  endfacet
  facet normal 1 -0 0
    outer loop
      vertex 26 23.8 0.0999994
      vertex 26 25 0
      vertex 26 25 0.0999994
    endloop
  endfacet
  facet normal 1 0 0
    outer loop
      vertex 26 -25 0
      vertex 26 23.8 0.0999994
      vertex 26 -25 0.0999994
    endloop
  endfacet
  facet normal 1 0 0
    outer loop
      vertex 26 23.8 0.0999994
      vertex 26 -25 0
      vertex 26 25 0
    endloop
  endfacet
  facet normal 0.798338 0.0503342 0.600102
    outer loop
      vertex 0.992114 0.125333 35.4553
      vertex 26 25 0.0999994
      vertex 25.9921 25.1253 0.0999994
    endloop
  endfacet
  facet normal 0.798377 0.0502342 0.600059
    outer loop
      vertex 26 25 0.0999994
      vertex 0.992114 0.125333 35.4553
      vertex 1 0 35.4553
    endloop
  endfacet
  facet normal 0.546037 0.451737 0.705533
    outer loop
      vertex 0.728969 0.684546 35.4553
      vertex 25.809 25.5878 0.0999994
      vertex 25.729 25.6845 0.0999994
    endloop
  endfacet
  facet normal 0.546047 0.451726 0.705533
    outer loop
      vertex 25.809 25.5878 0.0999994
      vertex 0.728969 0.684546 35.4553
      vertex 0.809016 0.587785 35.4553
    endloop
  endfacet
  facet normal 0.659001 0.310084 0.685248
    outer loop
      vertex 0.876307 0.481753 35.4553
      vertex 25.9298 25.3681 0.0999994
      vertex 25.8763 25.4818 0.0999994
    endloop
  endfacet
  facet normal 0.658994 0.310095 0.68525
    outer loop
      vertex 25.9298 25.3681 0.0999994
      vertex 0.876307 0.481753 35.4553
      vertex 0.929776 0.368124 35.4553
    endloop
  endfacet
  facet normal 0 0.816497 0.57735
    outer loop
      vertex 25.0628 25.998 0.0999994
      vertex -0.0627899 0.998026 35.4553
      vertex 0.0627899 0.998026 35.4553
    endloop
  endfacet
  facet normal 0 0.816497 0.57735
    outer loop
      vertex -0.0627899 0.998026 35.4553
      vertex 25.0628 25.998 0.0999994
      vertex -25.0628 25.998 0.0999994
    endloop
  endfacet
  facet normal 0.904837 0.425759 0
    outer loop
      vertex 25.9298 25.3681 0.0999994
      vertex 25.8763 25.4818 0
      vertex 25.8763 25.4818 0.0999994
    endloop
  endfacet
  facet normal 0.904837 0.425759 0
    outer loop
      vertex 25.8763 25.4818 0
      vertex 25.9298 25.3681 0.0999994
      vertex 25.9298 25.3681 0
    endloop
  endfacet
  facet normal 0.757046 0.14417 0.637257
    outer loop
      vertex 0.968583 0.24869 35.4553
      vertex 25.9921 25.1253 0.0999994
      vertex 25.9686 25.2487 0.0999994
    endloop
  endfacet
  facet normal 0.756938 0.14439 0.637335
    outer loop
      vertex 25.9921 25.1253 0.0999994
      vertex 0.968583 0.24869 35.4553
      vertex 0.992114 0.125333 35.4553
    endloop
  endfacet
  facet normal 0.816488 2.7508e-05 0.577363
    outer loop
      vertex 26 23.8 0.0999994
      vertex 1 0 35.4553
      vertex 2.2 0 33.7583
    endloop
  endfacet
  facet normal 0.658983 -0.31009 0.685263
    outer loop
      vertex 0.876307 -0.481753 35.4553
      vertex 1.52978 -0.968123 34.6068
      vertex 0.929776 -0.368124 35.4553
    endloop
  endfacet
  facet normal 0.658978 -0.310098 0.685264
    outer loop
      vertex 1.52978 -0.968123 34.6068
      vertex 0.876307 -0.481753 35.4553
      vertex 1.47631 -1.08175 34.6068
    endloop
  endfacet
  facet normal 0 -0.816497 -0.57735
    outer loop
      vertex 0 0.00197448 32.2441
      vertex -22.8 22.802 0
      vertex 22.8 22.802 0
    endloop
  endfacet
  facet normal 0.710067 0.230742 0.665254
    outer loop
      vertex 0.929776 0.368124 35.4553
      vertex 25.9686 25.2487 0.0999994
      vertex 25.9298 25.3681 0.0999994
    endloop
  endfacet
  facet normal 0.710079 0.230722 0.665248
    outer loop
      vertex 25.9686 25.2487 0.0999994
      vertex 0.929776 0.368124 35.4553
      vertex 0.968583 0.24869 35.4553
    endloop
  endfacet
  facet normal 0.546038 -0.451719 0.705544
    outer loop
      vertex 0.728969 -0.684546 35.4553
      vertex 1.40902 -1.18778 34.6068
      vertex 0.809016 -0.587785 35.4553
    endloop
  endfacet
  facet normal 0.54605 -0.451703 0.705545
    outer loop
      vertex 1.40902 -1.18778 34.6068
      vertex 0.728969 -0.684546 35.4553
      vertex 1.32897 -1.28455 34.6068
    endloop
  endfacet
  facet normal -0.816488 2.7508e-05 0.577363
    outer loop
      vertex -1 0 35.4553
      vertex -26 23.8 0.0999994
      vertex -2.2 0 33.7583
    endloop
  endfacet
  facet normal -0.904837 0.425759 0
    outer loop
      vertex -25.9298 25.3681 0
      vertex -25.8763 25.4818 0.0999994
      vertex -25.8763 25.4818 0
    endloop
  endfacet
  facet normal -0.904837 0.425759 0
    outer loop
      vertex -25.8763 25.4818 0.0999994
      vertex -25.9298 25.3681 0
      vertex -25.9298 25.3681 0.0999994
    endloop
  endfacet
  facet normal -0.757046 0.14417 0.637257
    outer loop
      vertex -25.9921 25.1253 0.0999994
      vertex -0.968583 0.24869 35.4553
      vertex -25.9686 25.2487 0.0999994
    endloop
  endfacet
  facet normal -0.756938 0.14439 0.637335
    outer loop
      vertex -0.968583 0.24869 35.4553
      vertex -25.9921 25.1253 0.0999994
      vertex -0.992114 0.125333 35.4553
    endloop
  endfacet
  facet normal 0.816496 0 0.577351
    outer loop
      vertex 26 25 0.0999994
      vertex 1 0 35.4553
      vertex 26 23.8 0.0999994
    endloop
  endfacet
  facet normal 0.75693 -0.144388 0.637346
    outer loop
      vertex 0.968583 -0.24869 35.4553
      vertex 1.59211 -0.725332 34.6068
      vertex 0.992114 -0.125333 35.4553
    endloop
  endfacet
  facet normal 0.756932 -0.144383 0.637344
    outer loop
      vertex 1.59211 -0.725332 34.6068
      vertex 0.968583 -0.24869 35.4553
      vertex 1.56858 -0.848689 34.6068
    endloop
  endfacet
  facet normal -1 0 0
    outer loop
      vertex -26 25 0
      vertex -26 23.8 0.0999994
      vertex -26 25 0.0999994
    endloop
  endfacet
  facet normal -1 0 0
    outer loop
      vertex -26 -25 0
      vertex -26 23.8 0.0999994
      vertex -26 25 0
    endloop
  endfacet
  facet normal -1 -0 0
    outer loop
      vertex -26 23.8 0.0999994
      vertex -26 -25 0
      vertex -26 -25 0.0999994
    endloop
  endfacet
  facet normal 0.34759 0.631982 0.692662
    outer loop
      vertex 25.4258 25.9048 0.0999994
      vertex 0.535827 0.844327 35.4553
      vertex 25.5358 25.8443 0.0999994
    endloop
  endfacet
  facet normal 0.347476 0.632066 0.692642
    outer loop
      vertex 0.535827 0.844327 35.4553
      vertex 25.4258 25.9048 0.0999994
      vertex 0.425778 0.904826 35.4553
    endloop
  endfacet
  facet normal -0.659001 0.310084 0.685248
    outer loop
      vertex -25.9298 25.3681 0.0999994
      vertex -0.876307 0.481753 35.4553
      vertex -25.8763 25.4818 0.0999994
    endloop
  endfacet
  facet normal -0.658994 0.310095 0.68525
    outer loop
      vertex -0.876307 0.481753 35.4553
      vertex -25.9298 25.3681 0.0999994
      vertex -0.929776 0.368124 35.4553
    endloop
  endfacet
  facet normal 0.604249 -0.383474 0.698449
    outer loop
      vertex 0.809016 -0.587785 35.4553
      vertex 1.47631 -1.08175 34.6068
      vertex 0.876307 -0.481753 35.4553
    endloop
  endfacet
  facet normal 0.604248 -0.383475 0.698449
    outer loop
      vertex 1.47631 -1.08175 34.6068
      vertex 0.809016 -0.587785 35.4553
      vertex 1.40902 -1.18778 34.6068
    endloop
  endfacet
  facet normal 0.798368 -0.0502336 0.600071
    outer loop
      vertex 0.992114 -0.125333 35.4553
      vertex 1.6 -0.599999 34.6068
      vertex 1 0 35.4553
    endloop
  endfacet
  facet normal 0.79836 -0.0502586 0.60008
    outer loop
      vertex 1.6 -0.599999 34.6068
      vertex 0.992114 -0.125333 35.4553
      vertex 1.59211 -0.725332 34.6068
    endloop
  endfacet
  facet normal -0.347476 0.632066 0.692642
    outer loop
      vertex -25.4258 25.9048 0.0999994
      vertex -0.535827 0.844327 35.4553
      vertex -0.425778 0.904826 35.4553
    endloop
  endfacet
  facet normal -0.34759 0.631982 0.692662
    outer loop
      vertex -0.535827 0.844327 35.4553
      vertex -25.4258 25.9048 0.0999994
      vertex -25.5358 25.8443 0.0999994
    endloop
  endfacet
  facet normal 0.0983407 -0.778423 0.61999
    outer loop
      vertex 0.662789 -1.59803 34.6068
      vertex 0.187381 -0.982286 35.4553
      vertex 0.0627899 -0.998026 35.4553
    endloop
  endfacet
  facet normal 0.0983408 -0.778423 0.61999
    outer loop
      vertex 0.187381 -0.982286 35.4553
      vertex 0.662789 -1.59803 34.6068
      vertex 0.78738 -1.58229 34.6068
    endloop
  endfacet
  facet normal -0.658983 -0.31009 0.685263
    outer loop
      vertex -1.52978 -0.968123 34.6068
      vertex -0.876307 -0.481753 35.4553
      vertex -0.929776 -0.368124 35.4553
    endloop
  endfacet
  facet normal -0.658978 -0.310098 0.685264
    outer loop
      vertex -0.876307 -0.481753 35.4553
      vertex -1.52978 -0.968123 34.6068
      vertex -1.47631 -1.08175 34.6068
    endloop
  endfacet
  facet normal -0.248529 0.968625 0
    outer loop
      vertex -25.1874 25.9823 0
      vertex -25.309 25.9511 0.0999994
      vertex -25.1874 25.9823 0.0999994
    endloop
  endfacet
  facet normal -0.248529 0.968625 0
    outer loop
      vertex -25.309 25.9511 0.0999994
      vertex -25.1874 25.9823 0
      vertex -25.309 25.9511 0
    endloop
  endfacet
  facet normal -0.418184 -0.575584 0.702727
    outer loop
      vertex -0.637424 -0.770513 35.4553
      vertex -1.13583 -1.44433 34.6068
      vertex -0.535827 -0.844327 35.4553
    endloop
  endfacet
  facet normal -0.418224 -0.575554 0.702727
    outer loop
      vertex -1.13583 -1.44433 34.6068
      vertex -0.637424 -0.770513 35.4553
      vertex -1.23742 -1.37051 34.6068
    endloop
  endfacet
  facet normal 0.844219 0.535999 0
    outer loop
      vertex 25.8763 25.4818 0.0999994
      vertex 25.809 25.5878 0
      vertex 25.809 25.5878 0.0999994
    endloop
  endfacet
  facet normal 0.844219 0.535999 0
    outer loop
      vertex 25.809 25.5878 0
      vertex 25.8763 25.4818 0.0999994
      vertex 25.8763 25.4818 0
    endloop
  endfacet
  facet normal -0.816496 0 0.577351
    outer loop
      vertex -26 25 0.0999994
      vertex -26 23.8 0.0999994
      vertex -1 0 35.4553
    endloop
  endfacet
  facet normal -0.27122 0.685015 0.676162
    outer loop
      vertex -25.309 25.9511 0.0999994
      vertex -0.425778 0.904826 35.4553
      vertex -0.309016 0.951056 35.4553
    endloop
  endfacet
  facet normal -0.271477 0.68485 0.676226
    outer loop
      vertex -0.425778 0.904826 35.4553
      vertex -25.309 25.9511 0.0999994
      vertex -25.4258 25.9048 0.0999994
    endloop
  endfacet
  facet normal 0.951046 0.30905 0
    outer loop
      vertex 25.9686 25.2487 0.0999994
      vertex 25.9298 25.3681 0
      vertex 25.9298 25.3681 0.0999994
    endloop
  endfacet
  facet normal 0.951046 0.30905 0
    outer loop
      vertex 25.9298 25.3681 0
      vertex 25.9686 25.2487 0.0999994
      vertex 25.9686 25.2487 0
    endloop
  endfacet
  facet normal -0.368507 0.929625 0
    outer loop
      vertex -25.309 25.9511 0
      vertex -25.4258 25.9048 0.0999994
      vertex -25.309 25.9511 0.0999994
    endloop
  endfacet
  facet normal -0.368507 0.929625 0
    outer loop
      vertex -25.4258 25.9048 0.0999994
      vertex -25.309 25.9511 0
      vertex -25.4258 25.9048 0
    endloop
  endfacet
  facet normal 0.188369 0.734157 0.652326
    outer loop
      vertex 25.1874 25.9823 0.0999994
      vertex 0.309016 0.951056 35.4553
      vertex 25.309 25.9511 0.0999994
    endloop
  endfacet
  facet normal 0.188481 0.734097 0.652362
    outer loop
      vertex 0.309016 0.951056 35.4553
      vertex 25.1874 25.9823 0.0999994
      vertex 0.187381 0.982286 35.4553
    endloop
  endfacet
  facet normal 0.484114 0.515637 0.706931
    outer loop
      vertex 25.6374 25.7705 0.0999994
      vertex 0.728969 0.684546 35.4553
      vertex 25.729 25.6845 0.0999994
    endloop
  endfacet
  facet normal 0.484169 0.515584 0.706932
    outer loop
      vertex 0.728969 0.684546 35.4553
      vertex 25.6374 25.7705 0.0999994
      vertex 0.637424 0.770513 35.4553
    endloop
  endfacet
  facet normal 0.816488 0 0.577363
    outer loop
      vertex 2.2 0 33.7583
      vertex 1 0 35.4553
      vertex 1.6 -0.599999 34.6068
    endloop
  endfacet
  facet normal 0.484125 -0.515608 0.706945
    outer loop
      vertex 0.728969 -0.684546 35.4553
      vertex 1.23742 -1.37051 34.6068
      vertex 1.32897 -1.28455 34.6068
    endloop
  endfacet
  facet normal 0.484162 -0.515577 0.706942
    outer loop
      vertex 1.23742 -1.37051 34.6068
      vertex 0.728969 -0.684546 35.4553
      vertex 0.637424 -0.770513 35.4553
    endloop
  endfacet
  facet normal -0.951046 0.30905 0
    outer loop
      vertex -25.9686 25.2487 0
      vertex -25.9298 25.3681 0.0999994
      vertex -25.9298 25.3681 0
    endloop
  endfacet
  facet normal -0.951046 0.30905 0
    outer loop
      vertex -25.9298 25.3681 0.0999994
      vertex -25.9686 25.2487 0
      vertex -25.9686 25.2487 0.0999994
    endloop
  endfacet
  facet normal -0.75693 -0.144388 0.637346
    outer loop
      vertex -1.59211 -0.725332 34.6068
      vertex -0.968583 -0.24869 35.4553
      vertex -0.992114 -0.125333 35.4553
    endloop
  endfacet
  facet normal -0.756932 -0.144383 0.637344
    outer loop
      vertex -0.968583 -0.24869 35.4553
      vertex -1.59211 -0.725332 34.6068
      vertex -1.56858 -0.848689 34.6068
    endloop
  endfacet
  facet normal -0.546038 -0.451719 0.705544
    outer loop
      vertex -1.40902 -1.18778 34.6068
      vertex -0.728969 -0.684546 35.4553
      vertex -0.809016 -0.587785 35.4553
    endloop
  endfacet
  facet normal -0.54605 -0.451703 0.705545
    outer loop
      vertex -0.728969 -0.684546 35.4553
      vertex -1.40902 -1.18778 34.6068
      vertex -1.32897 -1.28455 34.6068
    endloop
  endfacet
  facet normal -0.604249 -0.383474 0.698449
    outer loop
      vertex -1.47631 -1.08175 34.6068
      vertex -0.809016 -0.587785 35.4553
      vertex -0.876307 -0.481753 35.4553
    endloop
  endfacet
  facet normal -0.604248 -0.383475 0.698449
    outer loop
      vertex -0.809016 -0.587785 35.4553
      vertex -1.47631 -1.08175 34.6068
      vertex -1.40902 -1.18778 34.6068
    endloop
  endfacet
  facet normal 0.347472 -0.632054 0.692655
    outer loop
      vertex 0.535827 -0.844327 35.4553
      vertex 1.02578 -1.50483 34.6068
      vertex 1.13583 -1.44433 34.6068
    endloop
  endfacet
  facet normal 0.34747 -0.632055 0.692655
    outer loop
      vertex 1.02578 -1.50483 34.6068
      vertex 0.535827 -0.844327 35.4553
      vertex 0.425778 -0.904826 35.4553
    endloop
  endfacet
  facet normal 0.271477 0.68485 0.676226
    outer loop
      vertex 25.309 25.9511 0.0999994
      vertex 0.425778 0.904826 35.4553
      vertex 25.4258 25.9048 0.0999994
    endloop
  endfacet
  facet normal 0.27122 0.685015 0.676162
    outer loop
      vertex 0.425778 0.904826 35.4553
      vertex 25.309 25.9511 0.0999994
      vertex 0.309016 0.951056 35.4553
    endloop
  endfacet
  facet normal -0.710067 0.230742 0.665254
    outer loop
      vertex -25.9686 25.2487 0.0999994
      vertex -0.929776 0.368124 35.4553
      vertex -25.9298 25.3681 0.0999994
    endloop
  endfacet
  facet normal -0.710079 0.230722 0.665248
    outer loop
      vertex -0.929776 0.368124 35.4553
      vertex -25.9686 25.2487 0.0999994
      vertex -0.968583 0.24869 35.4553
    endloop
  endfacet
  facet normal -0.0983408 -0.778423 0.61999
    outer loop
      vertex -0.662789 -1.59803 34.6068
      vertex -0.187381 -0.982286 35.4553
      vertex -0.78738 -1.58229 34.6068
    endloop
  endfacet
  facet normal -0.0983407 -0.778423 0.61999
    outer loop
      vertex -0.187381 -0.982286 35.4553
      vertex -0.662789 -1.59803 34.6068
      vertex -0.0627899 -0.998026 35.4553
    endloop
  endfacet
  facet normal -0.68447 0.729041 0
    outer loop
      vertex -25.6374 25.7705 0
      vertex -25.729 25.6845 0.0999994
      vertex -25.6374 25.7705 0.0999994
    endloop
  endfacet
  facet normal -0.68447 0.729041 0
    outer loop
      vertex -25.729 25.6845 0.0999994
      vertex -25.6374 25.7705 0
      vertex -25.729 25.6845 0
    endloop
  endfacet
  facet normal -0.34747 -0.632055 0.692655
    outer loop
      vertex -0.535827 -0.844327 35.4553
      vertex -1.02578 -1.50483 34.6068
      vertex -0.425778 -0.904826 35.4553
    endloop
  endfacet
  facet normal -0.347472 -0.632054 0.692655
    outer loop
      vertex -1.02578 -1.50483 34.6068
      vertex -0.535827 -0.844327 35.4553
      vertex -1.13583 -1.44433 34.6068
    endloop
  endfacet
  facet normal 0.587698 0.80908 -0
    outer loop
      vertex 25.6374 25.7705 0
      vertex 25.5358 25.8443 0.0999994
      vertex 25.6374 25.7705 0.0999994
    endloop
  endfacet
  facet normal 0.587698 0.80908 0
    outer loop
      vertex 25.5358 25.8443 0.0999994
      vertex 25.6374 25.7705 0
      vertex 25.5358 25.8443 0
    endloop
  endfacet
  facet normal -0.0983422 0.778434 0.619975
    outer loop
      vertex -25.0628 25.998 0.0999994
      vertex -0.187381 0.982286 35.4553
      vertex -0.0627899 0.998026 35.4553
    endloop
  endfacet
  facet normal -0.0980987 0.778541 0.619879
    outer loop
      vertex -0.187381 0.982286 35.4553
      vertex -25.0628 25.998 0.0999994
      vertex -25.1874 25.9823 0.0999994
    endloop
  endfacet
  facet normal 0.125015 0.992155 -0
    outer loop
      vertex 25.1874 25.9823 0
      vertex 25.0628 25.998 0.0999994
      vertex 25.1874 25.9823 0.0999994
    endloop
  endfacet
  facet normal 0.125015 0.992155 0
    outer loop
      vertex 25.0628 25.998 0.0999994
      vertex 25.1874 25.9823 0
      vertex 25.0628 25.998 0
    endloop
  endfacet
  facet normal 0.60417 0.383591 0.698453
    outer loop
      vertex 0.809016 0.587785 35.4553
      vertex 25.8763 25.4818 0.0999994
      vertex 25.809 25.5878 0.0999994
    endloop
  endfacet
  facet normal 0.604258 0.38348 0.698438
    outer loop
      vertex 25.8763 25.4818 0.0999994
      vertex 0.809016 0.587785 35.4553
      vertex 0.876307 0.481753 35.4553
    endloop
  endfacet
  facet normal 0.998018 0.0629237 0
    outer loop
      vertex 26 25 0.0999994
      vertex 25.9921 25.1253 0
      vertex 25.9921 25.1253 0.0999994
    endloop
  endfacet
  facet normal 0.998018 0.0629237 0
    outer loop
      vertex 25.9921 25.1253 0
      vertex 26 25 0.0999994
      vertex 26 25 0
    endloop
  endfacet
  facet normal 0.770502 0.637437 0
    outer loop
      vertex 25.809 25.5878 0.0999994
      vertex 25.729 25.6845 0
      vertex 25.729 25.6845 0.0999994
    endloop
  endfacet
  facet normal 0.770502 0.637437 0
    outer loop
      vertex 25.729 25.6845 0
      vertex 25.809 25.5878 0.0999994
      vertex 25.809 25.5878 0
    endloop
  endfacet
  facet normal -0.798338 0.0503342 0.600102
    outer loop
      vertex -26 25 0.0999994
      vertex -0.992114 0.125333 35.4553
      vertex -25.9921 25.1253 0.0999994
    endloop
  endfacet
  facet normal -0.798377 0.0502342 0.600059
    outer loop
      vertex -0.992114 0.125333 35.4553
      vertex -26 25 0.0999994
      vertex -1 0 35.4553
    endloop
  endfacet
  facet normal -0.60417 0.383591 0.698453
    outer loop
      vertex -25.8763 25.4818 0.0999994
      vertex -0.809016 0.587785 35.4553
      vertex -25.809 25.5878 0.0999994
    endloop
  endfacet
  facet normal -0.604258 0.38348 0.698438
    outer loop
      vertex -0.809016 0.587785 35.4553
      vertex -25.8763 25.4818 0.0999994
      vertex -0.876307 0.481753 35.4553
    endloop
  endfacet
  facet normal -0.546037 0.451737 0.705533
    outer loop
      vertex -25.809 25.5878 0.0999994
      vertex -0.728969 0.684546 35.4553
      vertex -25.729 25.6845 0.0999994
    endloop
  endfacet
  facet normal -0.546047 0.451726 0.705533
    outer loop
      vertex -0.728969 0.684546 35.4553
      vertex -25.809 25.5878 0.0999994
      vertex -0.809016 0.587785 35.4553
    endloop
  endfacet
  facet normal -0.844219 0.535999 0
    outer loop
      vertex -25.8763 25.4818 0
      vertex -25.809 25.5878 0.0999994
      vertex -25.809 25.5878 0
    endloop
  endfacet
  facet normal -0.844219 0.535999 0
    outer loop
      vertex -25.809 25.5878 0.0999994
      vertex -25.8763 25.4818 0
      vertex -25.8763 25.4818 0.0999994
    endloop
  endfacet
  facet normal -0.188476 -0.734086 0.652376
    outer loop
      vertex -0.78738 -1.58229 34.6068
      vertex -0.309016 -0.951056 35.4553
      vertex -0.909016 -1.55106 34.6068
    endloop
  endfacet
  facet normal -0.188478 -0.734086 0.652376
    outer loop
      vertex -0.309016 -0.951056 35.4553
      vertex -0.78738 -1.58229 34.6068
      vertex -0.187381 -0.982286 35.4553
    endloop
  endfacet
  facet normal 0 0 -1
    outer loop
      vertex 25.0628 -25.998 0
      vertex 26 -25 0
      vertex 25.9921 -25.1253 0
    endloop
  endfacet
  facet normal 0 0 -1
    outer loop
      vertex 26 -25 0
      vertex 22.8 -22.802 0
      vertex 26 25 0
    endloop
  endfacet
  facet normal 0 0 -1
    outer loop
      vertex 25.0628 -25.998 0
      vertex 25.9921 -25.1253 0
      vertex 25.9686 -25.2487 0
    endloop
  endfacet
  facet normal 0 0 -1
    outer loop
      vertex 22.8 22.802 0
      vertex 26 25 0
      vertex 22.8 -22.802 0
    endloop
  endfacet
  facet normal 0 0 -1
    outer loop
      vertex 25.0628 -25.998 0
      vertex 25.9686 -25.2487 0
      vertex 25.9298 -25.3681 0
    endloop
  endfacet
  facet normal 0 -0 -1
    outer loop
      vertex 25.0628 25.998 0
      vertex 26 25 0
      vertex 22.8 22.802 0
    endloop
  endfacet
  facet normal 0 0 -1
    outer loop
      vertex 25.0628 -25.998 0
      vertex 25.9298 -25.3681 0
      vertex 25.8763 -25.4818 0
    endloop
  endfacet
  facet normal 0 0 -1
    outer loop
      vertex 26 25 0
      vertex 25.0628 25.998 0
      vertex 25.9921 25.1253 0
    endloop
  endfacet
  facet normal 0 0 -1
    outer loop
      vertex 25.0628 -25.998 0
      vertex 25.8763 -25.4818 0
      vertex 25.809 -25.5878 0
    endloop
  endfacet
  facet normal 0 0 -1
    outer loop
      vertex 25.9921 25.1253 0
      vertex 25.0628 25.998 0
      vertex 25.9686 25.2487 0
    endloop
  endfacet
  facet normal 0 0 -1
    outer loop
      vertex 25.0628 -25.998 0
      vertex 25.809 -25.5878 0
      vertex 25.729 -25.6845 0
    endloop
  endfacet
  facet normal 0 0 -1
    outer loop
      vertex 25.9686 25.2487 0
      vertex 25.0628 25.998 0
      vertex 25.9298 25.3681 0
    endloop
  endfacet
  facet normal 0 0 -1
    outer loop
      vertex 25.0628 -25.998 0
      vertex 25.729 -25.6845 0
      vertex 25.6374 -25.7705 0
    endloop
  endfacet
  facet normal 0 0 -1
    outer loop
      vertex 25.9298 25.3681 0
      vertex 25.0628 25.998 0
      vertex 25.8763 25.4818 0
    endloop
  endfacet
  facet normal 0 0 -1
    outer loop
      vertex 25.0628 -25.998 0
      vertex 25.6374 -25.7705 0
      vertex 25.5358 -25.8443 0
    endloop
  endfacet
  facet normal 0 0 -1
    outer loop
      vertex 25.8763 25.4818 0
      vertex 25.0628 25.998 0
      vertex 25.809 25.5878 0
    endloop
  endfacet
  facet normal 0 0 -1
    outer loop
      vertex 25.0628 -25.998 0
      vertex 25.5358 -25.8443 0
      vertex 25.4258 -25.9048 0
    endloop
  endfacet
  facet normal 0 0 -1
    outer loop
      vertex 25.809 25.5878 0
      vertex 25.0628 25.998 0
      vertex 25.729 25.6845 0
    endloop
  endfacet
  facet normal 0 0 -1
    outer loop
      vertex 25.0628 -25.998 0
      vertex 25.4258 -25.9048 0
      vertex 25.309 -25.9511 0
    endloop
  endfacet
  facet normal 0 0 -1
    outer loop
      vertex 25.729 25.6845 0
      vertex 25.0628 25.998 0
      vertex 25.6374 25.7705 0
    endloop
  endfacet
  facet normal 0 0 -1
    outer loop
      vertex 25.0628 -25.998 0
      vertex 25.309 -25.9511 0
      vertex 25.1874 -25.9823 0
    endloop
  endfacet
  facet normal 0 0 -1
    outer loop
      vertex 25.6374 25.7705 0
      vertex 25.0628 25.998 0
      vertex 25.5358 25.8443 0
    endloop
  endfacet
  facet normal -0 0 -1
    outer loop
      vertex 26 -25 0
      vertex 25.0628 -25.998 0
      vertex 22.8 -22.802 0
    endloop
  endfacet
  facet normal 0 0 -1
    outer loop
      vertex 25.5358 25.8443 0
      vertex 25.0628 25.998 0
      vertex 25.4258 25.9048 0
    endloop
  endfacet
  facet normal 0 0 -1
    outer loop
      vertex 25.4258 25.9048 0
      vertex 25.0628 25.998 0
      vertex 25.309 25.9511 0
    endloop
  endfacet
  facet normal 0 0 -1
    outer loop
      vertex 25.0628 -25.998 0
      vertex -22.8 -22.802 0
      vertex 22.8 -22.802 0
    endloop
  endfacet
  facet normal 0 0 -1
    outer loop
      vertex -26 -25 0
      vertex -22.8 -22.802 0
      vertex -25.0628 -25.998 0
    endloop
  endfacet
  facet normal 0 0 -1
    outer loop
      vertex -25.0628 -25.998 0
      vertex -22.8 -22.802 0
      vertex 25.0628 -25.998 0
    endloop
  endfacet
  facet normal 0 0 -1
    outer loop
      vertex 25.309 25.9511 0
      vertex 25.0628 25.998 0
      vertex 25.1874 25.9823 0
    endloop
  endfacet
  facet normal 0 0 -1
    outer loop
      vertex -22.8 22.802 0
      vertex 25.0628 25.998 0
      vertex 22.8 22.802 0
    endloop
  endfacet
  facet normal 0 0 -1
    outer loop
      vertex -22.8 22.802 0
      vertex -25.0628 25.998 0
      vertex 25.0628 25.998 0
    endloop
  endfacet
  facet normal -0 0 -1
    outer loop
      vertex -22.8 -22.802 0
      vertex -26 -25 0
      vertex -22.8 22.802 0
    endloop
  endfacet
  facet normal 0 0 -1
    outer loop
      vertex -26 -25 0
      vertex -25.0628 -25.998 0
      vertex -25.1874 -25.9823 0
    endloop
  endfacet
  facet normal 0 0 -1
    outer loop
      vertex -26 25 0
      vertex -22.8 22.802 0
      vertex -26 -25 0
    endloop
  endfacet
  facet normal 0 0 -1
    outer loop
      vertex -26 -25 0
      vertex -25.1874 -25.9823 0
      vertex -25.309 -25.9511 0
    endloop
  endfacet
  facet normal 0 0 -1
    outer loop
      vertex -22.8 22.802 0
      vertex -26 25 0
      vertex -25.0628 25.998 0
    endloop
  endfacet
  facet normal 0 0 -1
    outer loop
      vertex -26 -25 0
      vertex -25.309 -25.9511 0
      vertex -25.4258 -25.9048 0
    endloop
  endfacet
  facet normal 0 0 -1
    outer loop
      vertex -25.0628 25.998 0
      vertex -26 25 0
      vertex -25.1874 25.9823 0
    endloop
  endfacet
  facet normal 0 0 -1
    outer loop
      vertex -26 -25 0
      vertex -25.4258 -25.9048 0
      vertex -25.5358 -25.8443 0
    endloop
  endfacet
  facet normal 0 0 -1
    outer loop
      vertex -25.1874 25.9823 0
      vertex -26 25 0
      vertex -25.309 25.9511 0
    endloop
  endfacet
  facet normal 0 0 -1
    outer loop
      vertex -26 -25 0
      vertex -25.5358 -25.8443 0
      vertex -25.6374 -25.7705 0
    endloop
  endfacet
  facet normal 0 0 -1
    outer loop
      vertex -25.309 25.9511 0
      vertex -26 25 0
      vertex -25.4258 25.9048 0
    endloop
  endfacet
  facet normal 0 0 -1
    outer loop
      vertex -26 -25 0
      vertex -25.6374 -25.7705 0
      vertex -25.729 -25.6845 0
    endloop
  endfacet
  facet normal 0 0 -1
    outer loop
      vertex -25.4258 25.9048 0
      vertex -26 25 0
      vertex -25.5358 25.8443 0
    endloop
  endfacet
  facet normal 0 0 -1
    outer loop
      vertex -26 -25 0
      vertex -25.729 -25.6845 0
      vertex -25.809 -25.5878 0
    endloop
  endfacet
  facet normal 0 0 -1
    outer loop
      vertex -25.5358 25.8443 0
      vertex -26 25 0
      vertex -25.6374 25.7705 0
    endloop
  endfacet
  facet normal 0 0 -1
    outer loop
      vertex -26 -25 0
      vertex -25.809 -25.5878 0
      vertex -25.8763 -25.4818 0
    endloop
  endfacet
  facet normal 0 0 -1
    outer loop
      vertex -25.6374 25.7705 0
      vertex -26 25 0
      vertex -25.729 25.6845 0
    endloop
  endfacet
  facet normal 0 0 -1
    outer loop
      vertex -26 -25 0
      vertex -25.8763 -25.4818 0
      vertex -25.9298 -25.3681 0
    endloop
  endfacet
  facet normal 0 0 -1
    outer loop
      vertex -25.729 25.6845 0
      vertex -26 25 0
      vertex -25.809 25.5878 0
    endloop
  endfacet
  facet normal 0 0 -1
    outer loop
      vertex -26 -25 0
      vertex -25.9298 -25.3681 0
      vertex -25.9686 -25.2487 0
    endloop
  endfacet
  facet normal 0 0 -1
    outer loop
      vertex -25.809 25.5878 0
      vertex -26 25 0
      vertex -25.8763 25.4818 0
    endloop
  endfacet
  facet normal 0 0 -1
    outer loop
      vertex -26 -25 0
      vertex -25.9686 -25.2487 0
      vertex -25.9921 -25.1253 0
    endloop
  endfacet
  facet normal 0 0 -1
    outer loop
      vertex -25.8763 25.4818 0
      vertex -26 25 0
      vertex -25.9298 25.3681 0
    endloop
  endfacet
  facet normal 0 0 -1
    outer loop
      vertex -25.9298 25.3681 0
      vertex -26 25 0
      vertex -25.9686 25.2487 0
    endloop
  endfacet
  facet normal 0 0 -1
    outer loop
      vertex -25.9686 25.2487 0
      vertex -26 25 0
      vertex -25.9921 25.1253 0
    endloop
  endfacet
  facet normal 0.481919 0.876216 -0
    outer loop
      vertex 25.5358 25.8443 0
      vertex 25.4258 25.9048 0.0999994
      vertex 25.5358 25.8443 0.0999994
    endloop
  endfacet
  facet normal 0.481919 0.876216 0
    outer loop
      vertex 25.4258 25.9048 0.0999994
      vertex 25.5358 25.8443 0
      vertex 25.4258 25.9048 0
    endloop
  endfacet
  facet normal -0.587698 0.80908 0
    outer loop
      vertex -25.5358 25.8443 0
      vertex -25.6374 25.7705 0.0999994
      vertex -25.5358 25.8443 0.0999994
    endloop
  endfacet
  facet normal -0.587698 0.80908 0
    outer loop
      vertex -25.6374 25.7705 0.0999994
      vertex -25.5358 25.8443 0
      vertex -25.6374 25.7705 0
    endloop
  endfacet
  facet normal 0 0 1
    outer loop
      vertex 0.992114 0.125333 35.4553
      vertex 0.992114 -0.125333 35.4553
      vertex 1 0 35.4553
    endloop
  endfacet
  facet normal 0 0 1
    outer loop
      vertex 0.968583 0.24869 35.4553
      vertex 0.992114 -0.125333 35.4553
      vertex 0.992114 0.125333 35.4553
    endloop
  endfacet
  facet normal 0 0 1
    outer loop
      vertex 0.968583 0.24869 35.4553
      vertex 0.968583 -0.24869 35.4553
      vertex 0.992114 -0.125333 35.4553
    endloop
  endfacet
  facet normal 0 0 1
    outer loop
      vertex 0.929776 0.368124 35.4553
      vertex 0.968583 -0.24869 35.4553
      vertex 0.968583 0.24869 35.4553
    endloop
  endfacet
  facet normal 0 0 1
    outer loop
      vertex 0.929776 0.368124 35.4553
      vertex 0.929776 -0.368124 35.4553
      vertex 0.968583 -0.24869 35.4553
    endloop
  endfacet
  facet normal 0 0 1
    outer loop
      vertex 0.876307 0.481753 35.4553
      vertex 0.929776 -0.368124 35.4553
      vertex 0.929776 0.368124 35.4553
    endloop
  endfacet
  facet normal 0 0 1
    outer loop
      vertex 0.876307 0.481753 35.4553
      vertex 0.876307 -0.481753 35.4553
      vertex 0.929776 -0.368124 35.4553
    endloop
  endfacet
  facet normal 0 0 1
    outer loop
      vertex 0.809016 0.587785 35.4553
      vertex 0.876307 -0.481753 35.4553
      vertex 0.876307 0.481753 35.4553
    endloop
  endfacet
  facet normal 0 0 1
    outer loop
      vertex 0.809016 0.587785 35.4553
      vertex 0.809016 -0.587785 35.4553
      vertex 0.876307 -0.481753 35.4553
    endloop
  endfacet
  facet normal 0 0 1
    outer loop
      vertex 0.728969 0.684546 35.4553
      vertex 0.809016 -0.587785 35.4553
      vertex 0.809016 0.587785 35.4553
    endloop
  endfacet
  facet normal 0 0 1
    outer loop
      vertex 0.728969 0.684546 35.4553
      vertex 0.728969 -0.684546 35.4553
      vertex 0.809016 -0.587785 35.4553
    endloop
  endfacet
  facet normal 0 0 1
    outer loop
      vertex 0.637424 0.770513 35.4553
      vertex 0.728969 -0.684546 35.4553
      vertex 0.728969 0.684546 35.4553
    endloop
  endfacet
  facet normal 0 0 1
    outer loop
      vertex 0.637424 0.770513 35.4553
      vertex 0.637424 -0.770513 35.4553
      vertex 0.728969 -0.684546 35.4553
    endloop
  endfacet
  facet normal 0 0 1
    outer loop
      vertex 0.535827 0.844327 35.4553
      vertex 0.637424 -0.770513 35.4553
      vertex 0.637424 0.770513 35.4553
    endloop
  endfacet
  facet normal 0 0 1
    outer loop
      vertex 0.535827 0.844327 35.4553
      vertex 0.535827 -0.844327 35.4553
      vertex 0.637424 -0.770513 35.4553
    endloop
  endfacet
  facet normal 0 0 1
    outer loop
      vertex 0.425778 0.904826 35.4553
      vertex 0.535827 -0.844327 35.4553
      vertex 0.535827 0.844327 35.4553
    endloop
  endfacet
  facet normal 0 0 1
    outer loop
      vertex 0.425778 0.904826 35.4553
      vertex 0.425778 -0.904826 35.4553
      vertex 0.535827 -0.844327 35.4553
    endloop
  endfacet
  facet normal 0 0 1
    outer loop
      vertex 0.309016 0.951056 35.4553
      vertex 0.425778 -0.904826 35.4553
      vertex 0.425778 0.904826 35.4553
    endloop
  endfacet
  facet normal 0 0 1
    outer loop
      vertex 0.309016 0.951056 35.4553
      vertex 0.309016 -0.951056 35.4553
      vertex 0.425778 -0.904826 35.4553
    endloop
  endfacet
  facet normal 0 0 1
    outer loop
      vertex 0.187381 0.982286 35.4553
      vertex 0.309016 -0.951056 35.4553
      vertex 0.309016 0.951056 35.4553
    endloop
  endfacet
  facet normal 0 0 1
    outer loop
      vertex 0.187381 0.982286 35.4553
      vertex 0.187381 -0.982286 35.4553
      vertex 0.309016 -0.951056 35.4553
    endloop
  endfacet
  facet normal 0 0 1
    outer loop
      vertex 0.0627899 0.998026 35.4553
      vertex 0.187381 -0.982286 35.4553
      vertex 0.187381 0.982286 35.4553
    endloop
  endfacet
  facet normal 0 0 1
    outer loop
      vertex 0.0627899 0.998026 35.4553
      vertex 0.0627899 -0.998026 35.4553
      vertex 0.187381 -0.982286 35.4553
    endloop
  endfacet
  facet normal -0 0 1
    outer loop
      vertex -0.0627899 0.998026 35.4553
      vertex 0.0627899 -0.998026 35.4553
      vertex 0.0627899 0.998026 35.4553
    endloop
  endfacet
  facet normal 0 0 1
    outer loop
      vertex -0.0627899 0.998026 35.4553
      vertex -0.0627899 -0.998026 35.4553
      vertex 0.0627899 -0.998026 35.4553
    endloop
  endfacet
  facet normal -0 0 1
    outer loop
      vertex -0.187381 0.982286 35.4553
      vertex -0.0627899 -0.998026 35.4553
      vertex -0.0627899 0.998026 35.4553
    endloop
  endfacet
  facet normal 0 0 1
    outer loop
      vertex -0.187381 0.982286 35.4553
      vertex -0.187381 -0.982286 35.4553
      vertex -0.0627899 -0.998026 35.4553
    endloop
  endfacet
  facet normal -0 0 1
    outer loop
      vertex -0.309016 0.951056 35.4553
      vertex -0.187381 -0.982286 35.4553
      vertex -0.187381 0.982286 35.4553
    endloop
  endfacet
  facet normal 0 0 1
    outer loop
      vertex -0.309016 0.951056 35.4553
      vertex -0.309016 -0.951056 35.4553
      vertex -0.187381 -0.982286 35.4553
    endloop
  endfacet
  facet normal -0 0 1
    outer loop
      vertex -0.425778 0.904826 35.4553
      vertex -0.309016 -0.951056 35.4553
      vertex -0.309016 0.951056 35.4553
    endloop
  endfacet
  facet normal 0 0 1
    outer loop
      vertex -0.425778 0.904826 35.4553
      vertex -0.425778 -0.904826 35.4553
      vertex -0.309016 -0.951056 35.4553
    endloop
  endfacet
  facet normal -0 0 1
    outer loop
      vertex -0.535827 0.844327 35.4553
      vertex -0.425778 -0.904826 35.4553
      vertex -0.425778 0.904826 35.4553
    endloop
  endfacet
  facet normal 0 0 1
    outer loop
      vertex -0.535827 0.844327 35.4553
      vertex -0.535827 -0.844327 35.4553
      vertex -0.425778 -0.904826 35.4553
    endloop
  endfacet
  facet normal -0 0 1
    outer loop
      vertex -0.637424 0.770513 35.4553
      vertex -0.535827 -0.844327 35.4553
      vertex -0.535827 0.844327 35.4553
    endloop
  endfacet
  facet normal 0 0 1
    outer loop
      vertex -0.637424 0.770513 35.4553
      vertex -0.637424 -0.770513 35.4553
      vertex -0.535827 -0.844327 35.4553
    endloop
  endfacet
  facet normal -0 0 1
    outer loop
      vertex -0.728969 0.684546 35.4553
      vertex -0.637424 -0.770513 35.4553
      vertex -0.637424 0.770513 35.4553
    endloop
  endfacet
  facet normal 0 0 1
    outer loop
      vertex -0.728969 0.684546 35.4553
      vertex -0.728969 -0.684546 35.4553
      vertex -0.637424 -0.770513 35.4553
    endloop
  endfacet
  facet normal -0 0 1
    outer loop
      vertex -0.809016 0.587785 35.4553
      vertex -0.728969 -0.684546 35.4553
      vertex -0.728969 0.684546 35.4553
    endloop
  endfacet
  facet normal 0 0 1
    outer loop
      vertex -0.809016 0.587785 35.4553
      vertex -0.809016 -0.587785 35.4553
      vertex -0.728969 -0.684546 35.4553
    endloop
  endfacet
  facet normal -0 0 1
    outer loop
      vertex -0.876307 0.481753 35.4553
      vertex -0.809016 -0.587785 35.4553
      vertex -0.809016 0.587785 35.4553
    endloop
  endfacet
  facet normal 0 0 1
    outer loop
      vertex -0.876307 0.481753 35.4553
      vertex -0.876307 -0.481753 35.4553
      vertex -0.809016 -0.587785 35.4553
    endloop
  endfacet
  facet normal -0 0 1
    outer loop
      vertex -0.929776 0.368124 35.4553
      vertex -0.876307 -0.481753 35.4553
      vertex -0.876307 0.481753 35.4553
    endloop
  endfacet
  facet normal 0 0 1
    outer loop
      vertex -0.929776 0.368124 35.4553
      vertex -0.929776 -0.368124 35.4553
      vertex -0.876307 -0.481753 35.4553
    endloop
  endfacet
  facet normal -0 0 1
    outer loop
      vertex -0.968583 0.24869 35.4553
      vertex -0.929776 -0.368124 35.4553
      vertex -0.929776 0.368124 35.4553
    endloop
  endfacet
  facet normal 0 0 1
    outer loop
      vertex -0.968583 0.24869 35.4553
      vertex -0.968583 -0.24869 35.4553
      vertex -0.929776 -0.368124 35.4553
    endloop
  endfacet
  facet normal -0 0 1
    outer loop
      vertex -0.992114 0.125333 35.4553
      vertex -0.968583 -0.24869 35.4553
      vertex -0.968583 0.24869 35.4553
    endloop
  endfacet
  facet normal 0 0 1
    outer loop
      vertex -0.992114 0.125333 35.4553
      vertex -0.992114 -0.125333 35.4553
      vertex -0.968583 -0.24869 35.4553
    endloop
  endfacet
  facet normal 0 -0 1
    outer loop
      vertex -0.992114 -0.125333 35.4553
      vertex -0.992114 0.125333 35.4553
      vertex -1 0 35.4553
    endloop
  endfacet
  facet normal -0.710071 -0.230719 0.665258
    outer loop
      vertex -1.56858 -0.848689 34.6068
      vertex -0.929776 -0.368124 35.4553
      vertex -0.968583 -0.24869 35.4553
    endloop
  endfacet
  facet normal -0.710089 -0.230683 0.665251
    outer loop
      vertex -0.929776 -0.368124 35.4553
      vertex -1.56858 -0.848689 34.6068
      vertex -1.52978 -0.968123 34.6068
    endloop
  endfacet
  facet normal 0.418135 0.575643 0.702708
    outer loop
      vertex 25.5358 25.8443 0.0999994
      vertex 0.637424 0.770513 35.4553
      vertex 25.6374 25.7705 0.0999994
    endloop
  endfacet
  facet normal 0.418191 0.575595 0.702713
    outer loop
      vertex 0.637424 0.770513 35.4553
      vertex 25.5358 25.8443 0.0999994
      vertex 0.535827 0.844327 35.4553
    endloop
  endfacet
  facet normal -0.982346 0.187076 0
    outer loop
      vertex -25.9921 25.1253 0
      vertex -25.9686 25.2487 0.0999994
      vertex -25.9686 25.2487 0
    endloop
  endfacet
  facet normal -0.982346 0.187076 0
    outer loop
      vertex -25.9686 25.2487 0.0999994
      vertex -25.9921 25.1253 0
      vertex -25.9921 25.1253 0.0999994
    endloop
  endfacet
  facet normal -0.484169 0.515584 0.706932
    outer loop
      vertex -25.6374 25.7705 0.0999994
      vertex -0.728969 0.684546 35.4553
      vertex -0.637424 0.770513 35.4553
    endloop
  endfacet
  facet normal -0.484114 0.515637 0.706931
    outer loop
      vertex -0.728969 0.684546 35.4553
      vertex -25.6374 25.7705 0.0999994
      vertex -25.729 25.6845 0.0999994
    endloop
  endfacet
  facet normal -0.816497 0 0.57735
    outer loop
      vertex -26 23.8 0.0999994
      vertex -26 -25 0.0999994
      vertex -2.2 0 33.7583
    endloop
  endfacet
  facet normal 0.7101 -0.230687 0.665238
    outer loop
      vertex 1.52978 -0.968123 34.6068
      vertex 25.9686 -25.2487 0.0999994
      vertex 1.56858 -0.848689 34.6068
    endloop
  endfacet
  facet normal 0.710068 -0.230742 0.665253
    outer loop
      vertex 25.9686 -25.2487 0.0999994
      vertex 1.52978 -0.968123 34.6068
      vertex 25.9298 -25.3681 0.0999994
    endloop
  endfacet
  facet normal -0.770502 -0.637437 0
    outer loop
      vertex -25.729 -25.6845 0
      vertex -25.809 -25.5878 0.0999994
      vertex -25.809 -25.5878 0
    endloop
  endfacet
  facet normal -0.770502 -0.637437 0
    outer loop
      vertex -25.809 -25.5878 0.0999994
      vertex -25.729 -25.6845 0
      vertex -25.729 -25.6845 0.0999994
    endloop
  endfacet
  facet normal -0.125015 -0.992155 0
    outer loop
      vertex -25.1874 -25.9823 0
      vertex -25.0628 -25.998 0.0999994
      vertex -25.1874 -25.9823 0.0999994
    endloop
  endfacet
  facet normal -0.125015 -0.992155 -0
    outer loop
      vertex -25.0628 -25.998 0.0999994
      vertex -25.1874 -25.9823 0
      vertex -25.0628 -25.998 0
    endloop
  endfacet
  facet normal 0 0.816497 -0.57735
    outer loop
      vertex 22.8 -22.802 0
      vertex -22.8 -22.802 0
      vertex 0 -0.00197411 32.2441
    endloop
  endfacet
  facet normal -0.248529 -0.968625 0
    outer loop
      vertex -25.309 -25.9511 0
      vertex -25.1874 -25.9823 0.0999994
      vertex -25.309 -25.9511 0.0999994
    endloop
  endfacet
  facet normal -0.248529 -0.968625 -0
    outer loop
      vertex -25.1874 -25.9823 0.0999994
      vertex -25.309 -25.9511 0
      vertex -25.1874 -25.9823 0
    endloop
  endfacet
  facet normal 0.481919 -0.876216 0
    outer loop
      vertex 25.4258 -25.9048 0
      vertex 25.5358 -25.8443 0.0999994
      vertex 25.4258 -25.9048 0.0999994
    endloop
  endfacet
  facet normal 0.481919 -0.876216 0
    outer loop
      vertex 25.5358 -25.8443 0.0999994
      vertex 25.4258 -25.9048 0
      vertex 25.5358 -25.8443 0
    endloop
  endfacet
  facet normal -0.68447 -0.729041 0
    outer loop
      vertex -25.729 -25.6845 0
      vertex -25.6374 -25.7705 0.0999994
      vertex -25.729 -25.6845 0.0999994
    endloop
  endfacet
  facet normal -0.68447 -0.729041 -0
    outer loop
      vertex -25.6374 -25.7705 0.0999994
      vertex -25.729 -25.6845 0
      vertex -25.6374 -25.7705 0
    endloop
  endfacet
  facet normal -0.0980987 -0.778542 0.619879
    outer loop
      vertex -25.0628 -25.998 0.0999994
      vertex -0.78738 -1.58229 34.6068
      vertex -25.1874 -25.9823 0.0999994
    endloop
  endfacet
  facet normal -0.0983423 -0.778435 0.619974
    outer loop
      vertex -0.78738 -1.58229 34.6068
      vertex -25.0628 -25.998 0.0999994
      vertex -0.662789 -1.59803 34.6068
    endloop
  endfacet
  facet normal 0.816492 -1.34157e-05 0.577357
    outer loop
      vertex 2.2 0 33.7583
      vertex 1.6 -0.599999 34.6068
      vertex 26 -25 0.0999994
    endloop
  endfacet
  facet normal -0.587698 -0.80908 0
    outer loop
      vertex -25.6374 -25.7705 0
      vertex -25.5358 -25.8443 0.0999994
      vertex -25.6374 -25.7705 0.0999994
    endloop
  endfacet
  facet normal -0.587698 -0.80908 -0
    outer loop
      vertex -25.5358 -25.8443 0.0999994
      vertex -25.6374 -25.7705 0
      vertex -25.5358 -25.8443 0
    endloop
  endfacet
  facet normal 0 -1 0
    outer loop
      vertex -25.0628 -25.998 0
      vertex 25.0628 -25.998 0.0999994
      vertex -25.0628 -25.998 0.0999994
    endloop
  endfacet
  facet normal 0 -1 -0
    outer loop
      vertex 25.0628 -25.998 0.0999994
      vertex -25.0628 -25.998 0
      vertex 25.0628 -25.998 0
    endloop
  endfacet
  facet normal -0.904837 -0.425759 0
    outer loop
      vertex -25.8763 -25.4818 0
      vertex -25.9298 -25.3681 0.0999994
      vertex -25.9298 -25.3681 0
    endloop
  endfacet
  facet normal -0.904837 -0.425759 0
    outer loop
      vertex -25.9298 -25.3681 0.0999994
      vertex -25.8763 -25.4818 0
      vertex -25.8763 -25.4818 0.0999994
    endloop
  endfacet
  facet normal 0.604258 -0.383481 0.698437
    outer loop
      vertex 1.40902 -1.18778 34.6068
      vertex 25.8763 -25.4818 0.0999994
      vertex 1.47631 -1.08175 34.6068
    endloop
  endfacet
  facet normal 0.60417 -0.383591 0.698453
    outer loop
      vertex 25.8763 -25.4818 0.0999994
      vertex 1.40902 -1.18778 34.6068
      vertex 25.809 -25.5878 0.0999994
    endloop
  endfacet
  facet normal -0.481919 -0.876216 0
    outer loop
      vertex -25.5358 -25.8443 0
      vertex -25.4258 -25.9048 0.0999994
      vertex -25.5358 -25.8443 0.0999994
    endloop
  endfacet
  facet normal -0.481919 -0.876216 -0
    outer loop
      vertex -25.4258 -25.9048 0.0999994
      vertex -25.5358 -25.8443 0
      vertex -25.4258 -25.9048 0
    endloop
  endfacet
  facet normal -0.7101 -0.230687 0.665238
    outer loop
      vertex -25.9686 -25.2487 0.0999994
      vertex -1.52978 -0.968123 34.6068
      vertex -1.56858 -0.848689 34.6068
    endloop
  endfacet
  facet normal -0.710068 -0.230742 0.665253
    outer loop
      vertex -1.52978 -0.968123 34.6068
      vertex -25.9686 -25.2487 0.0999994
      vertex -25.9298 -25.3681 0.0999994
    endloop
  endfacet
  facet normal 0.658989 -0.310103 0.685252
    outer loop
      vertex 1.47631 -1.08175 34.6068
      vertex 25.9298 -25.3681 0.0999994
      vertex 1.52978 -0.968123 34.6068
    endloop
  endfacet
  facet normal 0.659002 -0.310084 0.685248
    outer loop
      vertex 25.9298 -25.3681 0.0999994
      vertex 1.47631 -1.08175 34.6068
      vertex 25.8763 -25.4818 0.0999994
    endloop
  endfacet
  facet normal 0.798367 -0.0502591 0.60007
    outer loop
      vertex 1.59211 -0.725332 34.6068
      vertex 26 -25 0.0999994
      vertex 1.6 -0.599999 34.6068
    endloop
  endfacet
  facet normal 0.798338 -0.0503342 0.600102
    outer loop
      vertex 26 -25 0.0999994
      vertex 1.59211 -0.725332 34.6068
      vertex 25.9921 -25.1253 0.0999994
    endloop
  endfacet
  facet normal 0.271217 -0.685017 0.67616
    outer loop
      vertex 25.309 -25.9511 0.0999994
      vertex 1.02578 -1.50483 34.6068
      vertex 0.909016 -1.55106 34.6068
    endloop
  endfacet
  facet normal 0.271477 -0.68485 0.676225
    outer loop
      vertex 1.02578 -1.50483 34.6068
      vertex 25.309 -25.9511 0.0999994
      vertex 25.4258 -25.9048 0.0999994
    endloop
  endfacet
  facet normal 0 -0.816497 0.57735
    outer loop
      vertex -25.0628 -25.998 0.0999994
      vertex 0.662789 -1.59803 34.6068
      vertex -0.662789 -1.59803 34.6068
    endloop
  endfacet
  facet normal 0 -0.816497 0.57735
    outer loop
      vertex 0.662789 -1.59803 34.6068
      vertex -25.0628 -25.998 0.0999994
      vertex 25.0628 -25.998 0.0999994
    endloop
  endfacet
  facet normal -0.41823 -0.575562 0.702717
    outer loop
      vertex -1.23742 -1.37051 34.6068
      vertex -25.5358 -25.8443 0.0999994
      vertex -1.13583 -1.44433 34.6068
    endloop
  endfacet
  facet normal -0.418135 -0.575644 0.702707
    outer loop
      vertex -25.5358 -25.8443 0.0999994
      vertex -1.23742 -1.37051 34.6068
      vertex -25.6374 -25.7705 0.0999994
    endloop
  endfacet
  facet normal 0.982346 -0.187076 0
    outer loop
      vertex 25.9686 -25.2487 0.0999994
      vertex 25.9921 -25.1253 0
      vertex 25.9921 -25.1253 0.0999994
    endloop
  endfacet
  facet normal 0.982346 -0.187076 0
    outer loop
      vertex 25.9921 -25.1253 0
      vertex 25.9686 -25.2487 0.0999994
      vertex 25.9686 -25.2487 0
    endloop
  endfacet
  facet normal 0.248529 -0.968625 0
    outer loop
      vertex 25.1874 -25.9823 0
      vertex 25.309 -25.9511 0.0999994
      vertex 25.1874 -25.9823 0.0999994
    endloop
  endfacet
  facet normal 0.248529 -0.968625 0
    outer loop
      vertex 25.309 -25.9511 0.0999994
      vertex 25.1874 -25.9823 0
      vertex 25.309 -25.9511 0
    endloop
  endfacet
  facet normal 0.844219 -0.535999 0
    outer loop
      vertex 25.809 -25.5878 0.0999994
      vertex 25.8763 -25.4818 0
      vertex 25.8763 -25.4818 0.0999994
    endloop
  endfacet
  facet normal 0.844219 -0.535999 0
    outer loop
      vertex 25.8763 -25.4818 0
      vertex 25.809 -25.5878 0.0999994
      vertex 25.809 -25.5878 0
    endloop
  endfacet
  facet normal 0.816497 0 0.57735
    outer loop
      vertex 26 23.8 0.0999994
      vertex 2.2 0 33.7583
      vertex 26 -25 0.0999994
    endloop
  endfacet
  facet normal 0.34759 -0.631982 0.692661
    outer loop
      vertex 1.13583 -1.44433 34.6068
      vertex 25.4258 -25.9048 0.0999994
      vertex 25.5358 -25.8443 0.0999994
    endloop
  endfacet
  facet normal 0.347478 -0.632065 0.692642
    outer loop
      vertex 25.4258 -25.9048 0.0999994
      vertex 1.13583 -1.44433 34.6068
      vertex 1.02578 -1.50483 34.6068
    endloop
  endfacet
  facet normal 0.998018 -0.0629237 0
    outer loop
      vertex 25.9921 -25.1253 0.0999994
      vertex 26 -25 0
      vertex 26 -25 0.0999994
    endloop
  endfacet
  facet normal 0.998018 -0.0629237 0
    outer loop
      vertex 26 -25 0
      vertex 25.9921 -25.1253 0.0999994
      vertex 25.9921 -25.1253 0
    endloop
  endfacet
  facet normal 0.0983423 -0.778435 0.619974
    outer loop
      vertex 25.0628 -25.998 0.0999994
      vertex 0.78738 -1.58229 34.6068
      vertex 0.662789 -1.59803 34.6068
    endloop
  endfacet
  facet normal 0.0980987 -0.778542 0.619879
    outer loop
      vertex 0.78738 -1.58229 34.6068
      vertex 25.0628 -25.998 0.0999994
      vertex 25.1874 -25.9823 0.0999994
    endloop
  endfacet
  facet normal -0.756941 -0.144384 0.637333
    outer loop
      vertex -25.9921 -25.1253 0.0999994
      vertex -1.56858 -0.848689 34.6068
      vertex -1.59211 -0.725332 34.6068
    endloop
  endfacet
  facet normal -0.757046 -0.14417 0.637257
    outer loop
      vertex -1.56858 -0.848689 34.6068
      vertex -25.9921 -25.1253 0.0999994
      vertex -25.9686 -25.2487 0.0999994
    endloop
  endfacet
  facet normal -0.271477 -0.68485 0.676225
    outer loop
      vertex -25.309 -25.9511 0.0999994
      vertex -1.02578 -1.50483 34.6068
      vertex -25.4258 -25.9048 0.0999994
    endloop
  endfacet
  facet normal -0.271217 -0.685017 0.67616
    outer loop
      vertex -1.02578 -1.50483 34.6068
      vertex -25.309 -25.9511 0.0999994
      vertex -0.909016 -1.55106 34.6068
    endloop
  endfacet
  facet normal -0.816492 -1.34157e-05 0.577357
    outer loop
      vertex -2.2 0 33.7583
      vertex -26 -25 0.0999994
      vertex -1.6 -0.599999 34.6068
    endloop
  endfacet
  facet normal -0.188369 -0.734158 0.652326
    outer loop
      vertex -25.1874 -25.9823 0.0999994
      vertex -0.909016 -1.55106 34.6068
      vertex -25.309 -25.9511 0.0999994
    endloop
  endfacet
  facet normal -0.188479 -0.734098 0.652361
    outer loop
      vertex -0.909016 -1.55106 34.6068
      vertex -25.1874 -25.9823 0.0999994
      vertex -0.78738 -1.58229 34.6068
    endloop
  endfacet
  facet normal -0.368507 -0.929625 0
    outer loop
      vertex -25.4258 -25.9048 0
      vertex -25.309 -25.9511 0.0999994
      vertex -25.4258 -25.9048 0.0999994
    endloop
  endfacet
  facet normal -0.368507 -0.929625 -0
    outer loop
      vertex -25.309 -25.9511 0.0999994
      vertex -25.4258 -25.9048 0
      vertex -25.309 -25.9511 0
    endloop
  endfacet
  facet normal 0.484114 -0.515638 0.706931
    outer loop
      vertex 1.32897 -1.28455 34.6068
      vertex 25.6374 -25.7705 0.0999994
      vertex 25.729 -25.6845 0.0999994
    endloop
  endfacet
  facet normal 0.484134 -0.515618 0.706931
    outer loop
      vertex 25.6374 -25.7705 0.0999994
      vertex 1.32897 -1.28455 34.6068
      vertex 1.23742 -1.37051 34.6068
    endloop
  endfacet
  facet normal 0.68447 -0.729041 0
    outer loop
      vertex 25.6374 -25.7705 0
      vertex 25.729 -25.6845 0.0999994
      vertex 25.6374 -25.7705 0.0999994
    endloop
  endfacet
  facet normal 0.68447 -0.729041 0
    outer loop
      vertex 25.729 -25.6845 0.0999994
      vertex 25.6374 -25.7705 0
      vertex 25.729 -25.6845 0
    endloop
  endfacet
  facet normal 0.368507 -0.929625 0
    outer loop
      vertex 25.309 -25.9511 0
      vertex 25.4258 -25.9048 0.0999994
      vertex 25.309 -25.9511 0.0999994
    endloop
  endfacet
  facet normal 0.368507 -0.929625 0
    outer loop
      vertex 25.4258 -25.9048 0.0999994
      vertex 25.309 -25.9511 0
      vertex 25.4258 -25.9048 0
    endloop
  endfacet
  facet normal -0.998018 -0.0629237 0
    outer loop
      vertex -25.9921 -25.1253 0
      vertex -26 -25 0.0999994
      vertex -26 -25 0
    endloop
  endfacet
  facet normal -0.998018 -0.0629237 0
    outer loop
      vertex -26 -25 0.0999994
      vertex -25.9921 -25.1253 0
      vertex -25.9921 -25.1253 0.0999994
    endloop
  endfacet
  facet normal 0.54606 -0.451712 0.705531
    outer loop
      vertex 1.32897 -1.28455 34.6068
      vertex 25.809 -25.5878 0.0999994
      vertex 1.40902 -1.18778 34.6068
    endloop
  endfacet
  facet normal 0.546037 -0.451737 0.705533
    outer loop
      vertex 25.809 -25.5878 0.0999994
      vertex 1.32897 -1.28455 34.6068
      vertex 25.729 -25.6845 0.0999994
    endloop
  endfacet
  facet normal -0.798367 -0.0502591 0.60007
    outer loop
      vertex -26 -25 0.0999994
      vertex -1.59211 -0.725332 34.6068
      vertex -1.6 -0.599999 34.6068
    endloop
  endfacet
  facet normal -0.798338 -0.0503342 0.600102
    outer loop
      vertex -1.59211 -0.725332 34.6068
      vertex -26 -25 0.0999994
      vertex -25.9921 -25.1253 0.0999994
    endloop
  endfacet
  facet normal -0.347478 -0.632065 0.692642
    outer loop
      vertex -1.13583 -1.44433 34.6068
      vertex -25.4258 -25.9048 0.0999994
      vertex -1.02578 -1.50483 34.6068
    endloop
  endfacet
  facet normal -0.34759 -0.631982 0.692661
    outer loop
      vertex -25.4258 -25.9048 0.0999994
      vertex -1.13583 -1.44433 34.6068
      vertex -25.5358 -25.8443 0.0999994
    endloop
  endfacet
  facet normal -0.658989 -0.310103 0.685252
    outer loop
      vertex -25.9298 -25.3681 0.0999994
      vertex -1.47631 -1.08175 34.6068
      vertex -1.52978 -0.968123 34.6068
    endloop
  endfacet
  facet normal -0.659002 -0.310084 0.685248
    outer loop
      vertex -1.47631 -1.08175 34.6068
      vertex -25.9298 -25.3681 0.0999994
      vertex -25.8763 -25.4818 0.0999994
    endloop
  endfacet
  facet normal -0.484134 -0.515618 0.706931
    outer loop
      vertex -1.32897 -1.28455 34.6068
      vertex -25.6374 -25.7705 0.0999994
      vertex -1.23742 -1.37051 34.6068
    endloop
  endfacet
  facet normal -0.484114 -0.515638 0.706931
    outer loop
      vertex -25.6374 -25.7705 0.0999994
      vertex -1.32897 -1.28455 34.6068
      vertex -25.729 -25.6845 0.0999994
    endloop
  endfacet
  facet normal 0.125015 -0.992155 0
    outer loop
      vertex 25.0628 -25.998 0
      vertex 25.1874 -25.9823 0.0999994
      vertex 25.0628 -25.998 0.0999994
    endloop
  endfacet
  facet normal 0.125015 -0.992155 0
    outer loop
      vertex 25.1874 -25.9823 0.0999994
      vertex 25.0628 -25.998 0
      vertex 25.1874 -25.9823 0
    endloop
  endfacet
  facet normal 0.904837 -0.425759 0
    outer loop
      vertex 25.8763 -25.4818 0.0999994
      vertex 25.9298 -25.3681 0
      vertex 25.9298 -25.3681 0.0999994
    endloop
  endfacet
  facet normal 0.904837 -0.425759 0
    outer loop
      vertex 25.9298 -25.3681 0
      vertex 25.8763 -25.4818 0.0999994
      vertex 25.8763 -25.4818 0
    endloop
  endfacet
  facet normal 0.770502 -0.637437 0
    outer loop
      vertex 25.729 -25.6845 0.0999994
      vertex 25.809 -25.5878 0
      vertex 25.809 -25.5878 0.0999994
    endloop
  endfacet
  facet normal 0.770502 -0.637437 0
    outer loop
      vertex 25.809 -25.5878 0
      vertex 25.729 -25.6845 0.0999994
      vertex 25.729 -25.6845 0
    endloop
  endfacet
  facet normal 0.587698 -0.80908 0
    outer loop
      vertex 25.5358 -25.8443 0
      vertex 25.6374 -25.7705 0.0999994
      vertex 25.5358 -25.8443 0.0999994
    endloop
  endfacet
  facet normal 0.587698 -0.80908 0
    outer loop
      vertex 25.6374 -25.7705 0.0999994
      vertex 25.5358 -25.8443 0
      vertex 25.6374 -25.7705 0
    endloop
  endfacet
  facet normal -0.604258 -0.383481 0.698437
    outer loop
      vertex -25.8763 -25.4818 0.0999994
      vertex -1.40902 -1.18778 34.6068
      vertex -1.47631 -1.08175 34.6068
    endloop
  endfacet
  facet normal -0.60417 -0.383591 0.698453
    outer loop
      vertex -1.40902 -1.18778 34.6068
      vertex -25.8763 -25.4818 0.0999994
      vertex -25.809 -25.5878 0.0999994
    endloop
  endfacet
  facet normal 0.951046 -0.30905 0
    outer loop
      vertex 25.9298 -25.3681 0.0999994
      vertex 25.9686 -25.2487 0
      vertex 25.9686 -25.2487 0.0999994
    endloop
  endfacet
  facet normal 0.951046 -0.30905 0
    outer loop
      vertex 25.9686 -25.2487 0
      vertex 25.9298 -25.3681 0.0999994
      vertex 25.9298 -25.3681 0
    endloop
  endfacet
  facet normal -0.54606 -0.451712 0.705531
    outer loop
      vertex -25.809 -25.5878 0.0999994
      vertex -1.32897 -1.28455 34.6068
      vertex -1.40902 -1.18778 34.6068
    endloop
  endfacet
  facet normal -0.546037 -0.451737 0.705533
    outer loop
      vertex -1.32897 -1.28455 34.6068
      vertex -25.809 -25.5878 0.0999994
      vertex -25.729 -25.6845 0.0999994
    endloop
  endfacet
  facet normal -0.951046 -0.30905 0
    outer loop
      vertex -25.9298 -25.3681 0
      vertex -25.9686 -25.2487 0.0999994
      vertex -25.9686 -25.2487 0
    endloop
  endfacet
  facet normal -0.951046 -0.30905 0
    outer loop
      vertex -25.9686 -25.2487 0.0999994
      vertex -25.9298 -25.3681 0
      vertex -25.9298 -25.3681 0.0999994
    endloop
  endfacet
  facet normal 0.188479 -0.734098 0.652361
    outer loop
      vertex 25.1874 -25.9823 0.0999994
      vertex 0.909016 -1.55106 34.6068
      vertex 0.78738 -1.58229 34.6068
    endloop
  endfacet
  facet normal 0.188369 -0.734158 0.652326
    outer loop
      vertex 0.909016 -1.55106 34.6068
      vertex 25.1874 -25.9823 0.0999994
      vertex 25.309 -25.9511 0.0999994
    endloop
  endfacet
  facet normal 0.756941 -0.144384 0.637333
    outer loop
      vertex 1.56858 -0.848689 34.6068
      vertex 25.9921 -25.1253 0.0999994
      vertex 1.59211 -0.725332 34.6068
    endloop
  endfacet
  facet normal 0.757046 -0.14417 0.637257
    outer loop
      vertex 25.9921 -25.1253 0.0999994
      vertex 1.56858 -0.848689 34.6068
      vertex 25.9686 -25.2487 0.0999994
    endloop
  endfacet
  facet normal -0.844219 -0.535999 0
    outer loop
      vertex -25.809 -25.5878 0
      vertex -25.8763 -25.4818 0.0999994
      vertex -25.8763 -25.4818 0
    endloop
  endfacet
  facet normal -0.844219 -0.535999 0
    outer loop
      vertex -25.8763 -25.4818 0.0999994
      vertex -25.809 -25.5878 0
      vertex -25.809 -25.5878 0.0999994
    endloop
  endfacet
  facet normal 0.418135 -0.575644 0.702707
    outer loop
      vertex 1.23742 -1.37051 34.6068
      vertex 25.5358 -25.8443 0.0999994
      vertex 25.6374 -25.7705 0.0999994
    endloop
  endfacet
  facet normal 0.41823 -0.575562 0.702717
    outer loop
      vertex 25.5358 -25.8443 0.0999994
      vertex 1.23742 -1.37051 34.6068
      vertex 1.13583 -1.44433 34.6068
    endloop
  endfacet
  facet normal -0.982346 -0.187076 0
    outer loop
      vertex -25.9686 -25.2487 0
      vertex -25.9921 -25.1253 0.0999994
      vertex -25.9921 -25.1253 0
    endloop
  endfacet
  facet normal -0.982346 -0.187076 0
    outer loop
      vertex -25.9921 -25.1253 0.0999994
      vertex -25.9686 -25.2487 0
      vertex -25.9686 -25.2487 0.0999994
    endloop
  endfacet
  facet normal -0.816497 0 -0.57735
    outer loop
      vertex 22.8 22.802 0
      vertex 0 -0.00197411 32.2441
      vertex 0 0.00197448 32.2441
    endloop
  endfacet
  facet normal -0.816497 0 -0.57735
    outer loop
      vertex 0 -0.00197411 32.2441
      vertex 22.8 22.802 0
      vertex 22.8 -22.802 0
    endloop
  endfacet
  facet normal 0.816497 0 -0.57735
    outer loop
      vertex 0 -0.00197411 32.2441
      vertex -22.8 22.802 0
      vertex 0 0.00197448 32.2441
    endloop
  endfacet
  facet normal 0.816497 0 -0.57735
    outer loop
      vertex -22.8 22.802 0
      vertex 0 -0.00197411 32.2441
      vertex -22.8 -22.802 0
    endloop
  endfacet
endsolid OpenSCAD_Model
